<?xml version="1.0" encoding="UTF-8" standalone="no"?><!DOCTYPE svg PUBLIC "-//W3C//DTD SVG 1.1//EN" "http://www.w3.org/Graphics/SVG/1.1/DTD/svg11.dtd"><svg width="100%" height="100%" viewBox="0 0 9154 8071" version="1.1" xmlns="http://www.w3.org/2000/svg" xmlns:xlink="http://www.w3.org/1999/xlink" xml:space="preserve" xmlns:serif="http://www.serif.com/" style="fill-rule:evenodd;clip-rule:evenodd;stroke-linejoin:round;stroke-miterlimit:1.41421;"><g><path d="M3090.39,7942.41c401.196,-323.522 947.479,-819.643 993.45,-1332.98c43.922,-490.444 -287.019,-934.669 -596.116,-1317.98l-172.377,139.003c273.071,338.632 328.707,760.64 289.904,1193.92c-40.613,453.504 -444.621,1160.75 -799.056,1446.56l284.195,-128.533Z" style="fill:#00b1e5;"/><path d="M3820.13,256.261c337.327,389.661 775.414,923.905 729.442,1437.24c-43.921,490.445 -218.182,1127.88 -590.468,1450.17l-363.932,-375.458c328.895,-284.722 447.178,-696.498 485.981,-1129.78c40.613,-453.503 -219.848,-1214.91 -517.859,-1559.15l256.836,176.984Z" style="fill:#00b1e5;"/><path d="M3601.59,2758.91c-401.196,323.522 -1262.95,981.989 -1308.92,1495.32c-43.922,490.444 713.491,792.95 1022.59,1176.26l172.377,-139.003c-273.071,-338.631 -624.906,-538.045 -586.103,-971.326c40.613,-453.504 714.921,-897.317 1069.36,-1183.13l-369.298,-378.118Z" style="fill:#00b1e5;"/></g><g transform="matrix(0.547024,0,0,1,-23447.2,-5.82077e-11)"><text x="46106.5px" y="1516.11px" style="font-family:'GloriaHallelujah', 'Gloria Hallelujah';font-size:1875px;">The</text></g><path d="M20.833,3222.98c0,-84.229 10.626,-162.354 31.876,-234.375c21.251,-72.022 49.04,-134.278 83.368,-186.768c34.329,-52.49 73.07,-93.689 116.225,-123.596c43.156,-29.907 86.965,-44.861 131.428,-44.861c24.847,0 46.915,14.954 66.204,44.861c19.289,29.907 35.472,66.223 48.55,108.948c13.077,42.724 23.048,87.89 29.914,135.498c6.866,47.607 10.298,89.111 10.298,124.511c0,75.684 -9.808,149.231 -29.424,220.643c-19.616,71.411 -45.116,134.582 -76.502,189.514c-31.386,54.931 -66.695,99.182 -105.927,132.751c-39.232,33.569 -78.464,50.354 -117.696,50.354c-34.655,0 -63.915,-10.986 -87.782,-32.959c-23.866,-21.973 -43.155,-51.88 -57.867,-89.722c-14.712,-37.841 -25.501,-82.092 -32.366,-132.751c-6.866,-50.659 -10.299,-104.675 -10.299,-162.048Zm93.176,21.972c0,34.18 1.635,64.698 4.904,91.553c3.27,26.856 8.991,49.744 17.164,68.665c8.174,18.921 19.126,33.264 32.857,43.029c13.732,9.766 31.059,14.649 51.983,14.649c26.808,-0 53.617,-13.733 80.426,-41.199c26.808,-27.466 50.838,-62.561 72.088,-105.286c21.251,-42.724 38.579,-89.721 51.983,-140.991c13.404,-51.269 20.106,-101.318 20.106,-150.146c0,-21.973 -1.144,-45.777 -3.432,-71.411c-2.289,-25.635 -6.049,-49.439 -11.28,-71.412c-5.231,-21.972 -12.587,-40.588 -22.068,-55.847c-9.481,-15.258 -21.414,-22.888 -35.799,-22.888c-13.077,0 -28.443,8.24 -46.098,24.719c-17.654,16.48 -36.126,37.537 -55.415,63.172c-19.289,25.635 -38.251,54.931 -56.886,87.89c-18.636,32.959 -35.473,65.613 -50.512,97.962c-15.039,32.348 -27.135,63.476 -36.289,93.384c-9.154,29.907 -13.732,54.626 -13.732,74.157Z" style="fill:#fff;fill-rule:nonzero;stroke:#000;stroke-width:41.67px;"/><path d="M1024.19,3825.4c-15.039,-52.491 -31.712,-118.409 -50.021,-197.754c-18.308,-79.346 -37.434,-162.049 -57.377,-248.108c-19.943,-86.06 -40.539,-170.593 -61.79,-253.601c-21.251,-83.008 -42.665,-155.03 -64.243,-216.065c-9.154,-12.207 -21.25,-19.531 -36.289,-21.972c-15.039,-2.442 -30.895,-3.357 -47.569,-2.747c-16.674,0.61 -33.184,0 -49.531,-1.831c-16.346,-1.831 -30.568,-8.85 -42.664,-21.057c-12.097,-12.207 -21.088,-31.433 -26.972,-57.678c-5.885,-26.245 -6.866,-63.782 -2.943,-112.61l182.429,-0c3.923,-75.684 10.299,-150.757 19.126,-225.22c8.827,-74.463 20.597,-145.569 35.309,-213.318c14.712,-67.749 32.693,-130.92 53.944,-189.514c21.25,-58.594 46.751,-108.948 76.502,-151.062c29.751,-42.114 63.916,-75.378 102.494,-99.792c38.578,-24.415 82.714,-36.622 132.408,-36.622c17.655,0 35.146,7.935 52.473,23.804c17.328,15.869 32.857,36.621 46.588,62.256c13.731,25.635 24.847,54.626 33.347,86.975c8.501,32.349 12.751,65.003 12.751,97.962c-13.731,-0 -26.155,-5.188 -37.271,-15.564c-11.115,-10.376 -21.741,-21.973 -31.876,-34.79c-10.135,-12.818 -20.923,-24.72 -32.366,-35.706c-11.443,-10.986 -24.357,-16.48 -38.742,-16.48c-43.809,0 -84.512,16.175 -122.11,48.523c-37.597,32.349 -70.29,75.684 -98.08,130.005c-27.789,54.322 -49.694,117.493 -65.713,189.514c-16.02,72.022 -24.03,147.706 -24.03,227.051c-0,4.883 0.163,14.649 0.49,29.297l0.981,93.384c0.327,14.648 0.491,24.414 0.491,29.297c26.808,17.09 56.886,29.602 90.233,37.536c33.348,7.935 67.022,12.818 101.023,14.649c34.001,1.831 66.858,1.526 98.57,-0.916c31.713,-2.441 59.666,-5.493 83.859,-9.155c2.615,3.662 6.702,10.986 12.26,21.973c5.558,10.986 8.991,18.921 10.298,23.803c0,3.663 0.327,6.714 0.981,9.156c1.308,7.324 1.962,10.986 1.962,10.986c-0,29.297 -8.01,51.88 -24.03,67.749c-16.02,15.869 -36.453,27.771 -61.3,35.706c-24.847,7.934 -52.309,13.122 -82.387,15.564c-30.078,2.441 -59.012,4.577 -86.801,6.408c-27.79,1.831 -52.8,4.578 -75.032,8.24c-22.231,3.662 -37.924,10.376 -47.078,20.142c9.808,80.566 26.809,158.996 51.002,235.29c24.193,76.294 49.04,152.283 74.541,227.966c25.5,75.684 48.059,152.283 67.675,229.798c19.616,77.514 29.424,157.165 29.424,238.952c-2.616,0 -9.154,0.306 -19.616,0.916c-10.462,0.61 -21.578,-0.61 -33.347,-3.662c-11.77,-3.052 -22.886,-8.85 -33.348,-17.395c-10.461,-8.545 -16.673,-21.973 -18.635,-40.283Z" style="fill:#fff;fill-rule:nonzero;stroke:#000;stroke-width:41.67px;"/><path d="M3744.62,2281.78c0,-14.649 0.981,-33.265 2.943,-55.848c1.961,-22.583 5.231,-43.945 9.808,-64.087c4.577,-20.141 10.625,-37.536 18.144,-52.185c7.52,-14.648 16.837,-21.972 27.953,-21.972c1.308,-0 3.27,0.61 5.885,1.831c2.616,1.221 4.577,1.831 5.885,1.831c12.423,84.228 19.616,167.847 21.577,250.854c1.962,83.008 1.145,163.575 -2.452,241.7c-3.596,78.125 -8.99,153.198 -16.183,225.219c-7.192,72.022 -13.241,138.55 -18.145,199.585c-4.904,61.035 -7.846,116.272 -8.827,165.711c-0.981,49.438 2.779,90.637 11.279,123.596c-1.307,-20.752 -2.125,-46.387 -2.452,-76.904c-0.326,-30.518 1.145,-62.256 4.414,-95.215c3.269,-32.959 8.664,-65.613 16.183,-97.962c7.52,-32.348 18.635,-61.34 33.348,-86.975c14.712,-25.635 33.51,-46.081 56.396,-61.34c22.885,-15.259 51.328,-22.888 85.329,-22.888c35.309,-0 65.877,11.596 91.705,34.79c25.828,23.193 47.242,54.626 64.243,94.299c17,39.673 29.587,86.365 37.761,140.076c8.173,53.711 12.26,111.084 12.26,172.119c-0,29.297 -0.164,61.951 -0.491,97.961c-0.327,36.011 -2.942,69.275 -7.846,99.793c-4.904,30.517 -13.241,56.152 -25.011,76.904c-11.769,20.752 -29.424,31.128 -52.963,31.128c0,-21.973 0.817,-51.575 2.452,-88.806c1.635,-37.232 2.616,-76.904 2.942,-119.019c0.327,-42.114 -0.49,-84.839 -2.452,-128.174c-1.961,-43.334 -6.865,-82.397 -14.712,-117.187c-7.846,-34.79 -18.962,-63.171 -33.347,-85.144c-14.385,-21.973 -33.674,-32.959 -57.867,-32.959c-9.154,-0 -20.106,0.915 -32.857,2.747c-12.75,1.831 -25.664,8.239 -38.742,19.226c-13.077,10.986 -25.664,27.465 -37.76,49.438c-12.097,21.973 -21.905,52.49 -29.424,91.553c-7.52,39.062 -11.77,88.196 -12.751,147.4c-0.981,59.204 2.779,131.53 11.279,216.98c-4.577,24.414 -10.788,38.452 -18.635,42.114c-7.846,3.662 -17.327,5.493 -28.443,5.493c-23.539,0 -42.665,-15.259 -57.377,-45.776c-14.712,-30.518 -26.155,-71.411 -34.328,-122.681c-8.173,-51.269 -13.568,-110.779 -16.183,-178.528c-2.616,-67.749 -3.597,-138.855 -2.943,-213.318c0.654,-74.462 2.616,-149.841 5.885,-226.135c3.269,-76.294 6.702,-148.62 10.299,-216.98c3.596,-68.359 6.865,-130.615 9.808,-186.767c2.942,-56.153 4.413,-101.319 4.413,-135.498Z" style="fill:#fff;fill-rule:nonzero;stroke:#000;stroke-width:41.67px;"/><path d="M4290.93,2840.25c-0,-7.324 0.163,-20.141 0.49,-38.452l1.962,-118.103c0.326,-18.921 0.49,-32.043 0.49,-39.368c7.846,-21.972 18.145,-39.672 30.895,-53.1c12.751,-13.428 25.664,-24.414 38.742,-32.959c2.615,73.242 8.991,151.062 19.125,233.459c10.135,82.398 20.924,165.406 32.367,249.024c11.443,83.618 21.741,166.015 30.895,247.192c9.154,81.177 13.731,157.166 13.731,227.966c0,61.036 -16.673,91.553 -50.02,91.553c-20.27,0 -37.271,-15.564 -51.002,-46.692c-13.731,-31.128 -24.847,-70.801 -33.347,-119.018c-8.501,-48.218 -15.203,-101.929 -20.107,-161.133c-4.904,-59.204 -8.337,-117.188 -10.298,-173.95c-1.962,-56.763 -3.106,-108.948 -3.433,-156.555c-0.327,-47.608 -0.49,-84.229 -0.49,-109.864Zm15.692,-761.719c13.732,10.987 25.338,28.687 34.819,53.101c9.481,24.414 13.568,46.387 12.26,65.918c-1.308,19.531 -9.481,32.959 -24.52,40.283c-15.039,7.324 -40.54,-0.61 -76.503,-23.803c0,-36.622 3.76,-68.36 11.28,-95.215c7.519,-26.856 21.741,-40.284 42.664,-40.284Z" style="fill:#fff;fill-rule:nonzero;stroke:#000;stroke-width:41.67px;"/><path d="M4478.26,2578.41c-0,-3.662 0.327,-7.324 0.98,-10.986c0,-2.441 0.327,-5.493 0.981,-9.155c2.616,-7.324 6.866,-16.48 12.751,-27.466c5.884,-10.986 9.481,-16.48 10.788,-16.48l219.7,0c-0,-14.648 -1.144,-38.146 -3.433,-70.495c-2.288,-32.349 -4.25,-68.359 -5.885,-108.032c-1.634,-39.673 -2.125,-80.567 -1.471,-122.681c0.654,-42.114 3.76,-80.566 9.318,-115.356c5.558,-34.79 14.221,-63.477 25.991,-86.06c11.77,-22.583 28.443,-33.875 50.021,-33.875c-0,136.719 5.231,246.582 15.693,329.59c10.462,83.008 24.193,146.79 41.193,191.346c17.001,44.555 36.453,73.852 58.358,87.89c21.905,14.038 44.136,19.837 66.695,17.395c22.558,-2.441 44.789,-9.155 66.694,-20.141c21.905,-10.987 41.357,-18.311 58.358,-21.973c17,-3.662 30.731,-0.61 41.193,9.155c10.462,9.766 15.693,34.18 15.693,73.242c0,28.077 -3.596,48.218 -10.789,60.425c-7.192,12.207 -20.596,21.362 -40.212,27.466c-5.885,2.441 -15.53,5.188 -28.934,8.24c-13.404,3.051 -28.443,6.103 -45.117,9.155c-16.674,3.052 -34.328,6.104 -52.963,9.155c-18.635,3.052 -36.453,5.799 -53.454,8.24c-17.001,2.441 -32.366,4.272 -46.098,5.493c-13.731,1.221 -23.866,1.831 -30.404,1.831l-1.962,65.918c-0,59.815 5.067,117.798 15.202,173.95c10.135,56.153 21.251,112 33.348,167.542c12.096,55.542 23.212,111.389 33.347,167.541c10.135,56.153 15.202,113.526 15.202,172.12c0,10.986 -0.49,22.277 -1.471,33.874c-0.981,11.597 -3.106,21.973 -6.375,31.128c-3.269,9.155 -8.01,15.869 -14.222,20.142c-6.211,4.272 -14.875,3.357 -25.991,-2.747c-27.462,-13.428 -47.896,-42.725 -61.3,-87.891c-13.404,-45.166 -23.376,-98.571 -29.915,-160.217c-6.538,-61.645 -10.952,-126.953 -13.24,-195.923c-2.289,-68.969 -5.722,-133.667 -10.299,-194.092c-4.577,-60.424 -12.096,-111.999 -22.558,-154.724c-10.462,-42.724 -26.809,-68.969 -49.04,-78.735l-210.873,-87.891c-2.615,0 -6.865,-5.798 -12.75,-17.395c-5.885,-11.596 -9.481,-20.446 -10.789,-26.55c-0.654,-2.441 -0.981,-5.493 -0.981,-9.155c-0.653,-3.662 -0.98,-7.935 -0.98,-12.818Z" style="fill:#fff;fill-rule:nonzero;stroke:#000;stroke-width:41.67px;"/><path d="M5203.07,3038c-0,-73.242 4.74,-146.484 14.221,-219.726c9.482,-73.243 24.684,-139.161 45.608,-197.754c20.923,-58.594 47.896,-106.202 80.916,-142.823c33.02,-36.621 73.07,-54.931 120.148,-54.931c26.809,-0 50.348,9.155 70.618,27.466c20.27,18.31 37.27,42.419 51.001,72.326c13.732,29.907 24.193,65.003 31.386,105.286c7.193,40.283 10.789,82.397 10.789,126.343c-0,68.359 -8.664,135.193 -25.991,200.5c-17.328,65.308 -40.377,122.681 -69.147,172.119c-28.77,49.439 -61.627,86.67 -98.57,111.695c-36.944,25.024 -74.705,30.822 -113.283,17.395c0.654,39.062 7.683,70.495 21.087,94.299c13.405,23.804 29.588,41.809 48.55,54.016c18.962,12.207 38.742,20.142 59.338,23.804c20.597,3.662 38.742,5.493 54.435,5.493c16.347,-0 31.876,-2.747 46.588,-8.24c14.712,-5.493 29.261,-11.596 43.646,-18.31c14.385,-6.714 29.097,-12.818 44.136,-18.311c15.039,-5.493 30.731,-8.24 47.078,-8.24c6.539,0 13.241,0.611 20.107,1.831c6.865,1.221 13.077,4.273 18.635,9.156c5.558,4.882 10.135,12.207 13.731,21.972c3.596,9.766 5.394,22.583 5.394,38.452c0,25.635 -5.067,46.998 -15.202,64.087c-10.135,17.09 -22.885,31.434 -38.251,43.03c-15.366,11.597 -32.53,20.752 -51.492,27.466c-18.962,6.714 -37.434,11.597 -55.416,14.648c-17.981,3.052 -34.328,4.883 -49.04,5.494c-14.712,0.61 -25.664,0.915 -32.857,0.915c-47.078,0 -89.089,-13.733 -126.033,-41.199c-36.943,-27.465 -68.165,-65.918 -93.666,-115.356c-25.501,-49.439 -44.953,-109.253 -58.358,-179.443c-13.404,-70.191 -20.106,-148.011 -20.106,-233.46Zm115.734,-131.836c0,47.608 3.433,82.092 10.299,103.455c6.865,21.362 23.703,32.043 50.511,32.043c18.962,0 37.597,-6.408 55.906,-19.226c18.308,-12.817 34.818,-30.823 49.53,-54.016c14.712,-23.193 26.482,-50.354 35.309,-81.482c8.827,-31.128 13.241,-65.002 13.241,-101.623c-0,-19.532 -0.981,-40.284 -2.942,-62.256c-1.962,-21.973 -5.722,-42.115 -11.28,-60.425c-5.558,-18.311 -12.914,-33.264 -22.068,-44.861c-9.154,-11.597 -20.924,-17.395 -35.309,-17.395c-22.231,0 -42.174,9.155 -59.828,27.466c-17.655,18.31 -32.694,42.114 -45.117,71.411c-12.424,29.297 -21.905,61.951 -28.444,97.961c-6.538,36.011 -9.808,72.327 -9.808,108.948Z" style="fill:#fff;fill-rule:nonzero;stroke:#000;stroke-width:41.67px;"/><path d="M5787.63,2732.22c0,-21.973 2.616,-42.725 7.847,-62.256c5.231,-19.531 15.039,-29.297 29.424,-29.297c0.654,0 1.635,0.305 2.942,0.916c1.308,0.61 2.616,0.915 3.924,0.915c1.961,1.221 3.596,1.831 4.904,1.831c1.961,2.442 6.048,9.156 12.26,20.142c6.211,10.986 9.971,18.921 11.279,23.804c2.615,8.545 7.356,26.245 14.221,53.1c6.866,26.856 15.203,58.289 25.011,94.3c9.808,36.01 19.943,74.157 30.405,114.441c10.462,40.283 20.597,78.43 30.405,114.44c9.808,36.011 18.144,67.444 25.01,94.3c6.866,26.855 11.606,44.555 14.222,53.1c1.307,3.662 4.904,11.292 10.788,22.889c5.885,11.596 10.462,18.615 13.732,21.057c5.884,-19.532 11.769,-48.218 17.654,-86.06c5.885,-37.842 11.77,-79.346 17.654,-124.512c5.885,-45.166 12.26,-91.858 19.126,-140.075c6.866,-48.218 14.385,-91.858 22.559,-130.921c8.173,-39.062 17.327,-71.106 27.462,-96.13c10.135,-25.025 21.741,-37.537 34.818,-37.537c18.963,0 36.944,13.733 53.944,41.199c17.001,27.466 33.348,62.866 49.041,106.201c15.692,43.335 30.568,91.858 44.626,145.569c14.058,53.711 27.462,106.506 40.213,158.386c12.75,51.88 24.847,100.098 36.29,144.654c11.442,44.555 22.394,79.65 32.856,105.285c9.155,-6.103 16.674,-19.836 22.559,-41.199c5.885,-21.362 10.462,-43.945 13.731,-67.749c3.269,-23.803 5.558,-46.386 6.866,-67.749c1.307,-21.362 2.288,-35.095 2.942,-41.198c0.654,-14.649 1.798,-38.147 3.433,-70.496c1.635,-32.349 3.269,-68.664 4.904,-108.948l9.808,-252.685c1.635,-40.283 2.942,-76.294 3.923,-108.032c0.981,-31.739 1.798,-54.932 2.452,-69.581c1.308,0 4.741,-0.915 10.298,-2.746c5.558,-1.831 9.645,-2.747 12.261,-2.747c9.808,0 18.798,2.137 26.972,6.409c8.173,4.272 14.548,18.616 19.125,43.03c0,9.765 0.164,26.855 0.491,51.269l1.961,156.556c0.327,25.024 0.491,42.419 0.491,52.185c-0,21.972 0.163,55.542 0.49,100.708c0.327,45.166 -0,95.52 -0.981,151.062c-0.981,55.542 -3.269,112.304 -6.865,170.288c-3.597,57.983 -9.318,111.084 -17.164,159.301c-7.847,48.218 -18.309,87.586 -31.386,118.103c-13.077,30.518 -29.424,45.777 -49.04,45.777c-22.232,-0 -43.155,-10.376 -62.771,-31.128c-19.616,-20.752 -38.088,-47.913 -55.416,-81.482c-17.327,-33.569 -33.51,-71.106 -48.549,-112.61c-15.039,-41.504 -28.934,-83.618 -41.684,-126.343c-12.751,-42.724 -24.357,-83.313 -34.819,-121.765c-10.462,-38.452 -19.943,-71.106 -28.443,-97.961c-5.231,23.193 -10.299,53.406 -15.203,90.637c-4.904,37.231 -10.298,76.904 -16.183,119.019c-5.885,42.114 -12.423,84.533 -19.616,127.258c-7.192,42.724 -15.366,81.482 -24.52,116.272c-9.154,34.79 -19.616,63.171 -31.386,85.144c-11.769,21.972 -25.5,32.959 -41.193,32.959c-7.193,-0 -13.731,0.305 -19.616,0.915c-5.885,0.611 -11.279,-0.305 -16.183,-2.746c-4.904,-2.442 -9.481,-7.019 -13.732,-13.733c-4.25,-6.714 -8.336,-17.395 -12.26,-32.044l-186.352,-741.577c0,-2.441 -0.327,-8.545 -0.981,-18.31c-0.654,-9.766 -0.981,-17.7 -0.981,-23.804Z" style="fill:#fff;fill-rule:nonzero;stroke:#000;stroke-width:41.67px;"/><path d="M7097.98,3341.96c-27.462,35.401 -51.165,66.834 -71.108,94.3c-19.943,27.465 -39.395,50.659 -58.358,69.58c-18.962,18.92 -39.232,33.264 -60.809,43.029c-21.578,9.766 -47.733,14.649 -78.464,14.649c-68.003,-0 -118.35,-33.57 -151.044,-100.708c-32.693,-67.139 -49.04,-167.237 -49.04,-300.293c0,-51.27 3.76,-104.981 11.279,-161.133c7.52,-56.152 18.309,-111.694 32.367,-166.626c14.058,-54.932 30.895,-107.117 50.511,-156.555c19.616,-49.439 41.684,-93.079 66.204,-130.921c24.52,-37.841 50.838,-68.054 78.955,-90.637c28.116,-22.583 57.867,-33.874 89.253,-33.874c52.309,9.765 93.339,34.179 123.09,73.242c29.751,39.062 52.31,88.501 67.675,148.315c15.366,59.815 25.828,126.953 31.386,201.416c5.558,74.463 9.972,151.062 13.241,229.798c3.269,78.735 7.519,157.165 12.75,235.29c5.231,78.125 15.693,150.757 31.386,217.896c-9.154,45.166 -17.981,76.904 -26.482,95.215c-8.5,18.31 -17.818,21.057 -27.953,8.239c-10.134,-12.817 -21.904,-42.724 -35.308,-89.721c-13.405,-46.997 -29.915,-113.831 -49.531,-200.501Zm-375.647,-175.781c0,76.904 7.847,133.362 23.539,169.373c15.693,36.01 43.483,54.016 83.369,54.016c29.424,-0 57.703,-9.766 84.839,-29.297c27.135,-19.531 51.002,-46.692 71.598,-81.482c20.597,-34.79 37.107,-76.599 49.531,-125.427c12.423,-48.829 18.635,-102.539 18.635,-161.133c0,-24.414 0.327,-58.899 0.981,-103.455c0.654,-44.555 -0.817,-88.501 -4.414,-131.836c-3.596,-43.335 -10.462,-80.871 -20.597,-112.61c-10.134,-31.738 -25.664,-47.607 -46.588,-47.607c-37.27,-0 -71.925,18.005 -103.965,54.016c-32.039,36.011 -59.665,81.787 -82.877,137.329c-23.213,55.542 -41.357,116.882 -54.435,184.021c-13.077,67.139 -19.616,131.836 -19.616,194.092Z" style="fill:#fff;fill-rule:nonzero;stroke:#000;stroke-width:41.67px;"/><path d="M7282.37,2578.41c-0,-3.662 0.327,-7.324 0.981,-10.986c-0,-2.441 0.327,-5.493 0.98,-9.155c2.616,-7.324 6.866,-16.48 12.751,-27.466c5.885,-10.986 9.481,-16.48 10.789,-16.48l219.699,0c0,-14.648 -1.144,-38.146 -3.433,-70.495c-2.288,-32.349 -4.25,-68.359 -5.884,-108.032c-1.635,-39.673 -2.126,-80.567 -1.472,-122.681c0.654,-42.114 3.76,-80.566 9.318,-115.356c5.558,-34.79 14.222,-63.477 25.991,-86.06c11.77,-22.583 28.443,-33.875 50.021,-33.875c0,136.719 5.231,246.582 15.693,329.59c10.462,83.008 24.193,146.79 41.194,191.346c17,44.555 36.453,73.852 58.357,87.89c21.905,14.038 44.136,19.837 66.695,17.395c22.558,-2.441 44.79,-9.155 66.694,-20.141c21.905,-10.987 41.357,-18.311 58.358,-21.973c17,-3.662 30.732,-0.61 41.194,9.155c10.461,9.766 15.692,34.18 15.692,73.242c0,28.077 -3.596,48.218 -10.788,60.425c-7.193,12.207 -20.597,21.362 -40.213,27.466c-5.885,2.441 -15.53,5.188 -28.934,8.24c-13.404,3.051 -28.443,6.103 -45.117,9.155c-16.673,3.052 -34.328,6.104 -52.963,9.155c-18.635,3.052 -36.453,5.799 -53.454,8.24c-17,2.441 -32.366,4.272 -46.097,5.493c-13.732,1.221 -23.867,1.831 -30.405,1.831l-1.962,65.918c0,59.815 5.068,117.798 15.203,173.95c10.135,56.153 21.25,112 33.347,167.542c12.096,55.542 23.212,111.389 33.347,167.541c10.135,56.153 15.202,113.526 15.202,172.12c0,10.986 -0.49,22.277 -1.471,33.874c-0.981,11.597 -3.106,21.973 -6.375,31.128c-3.269,9.155 -8.01,15.869 -14.222,20.142c-6.211,4.272 -14.875,3.357 -25.991,-2.747c-27.462,-13.428 -47.896,-42.725 -61.3,-87.891c-13.404,-45.166 -23.376,-98.571 -29.914,-160.217c-6.539,-61.645 -10.953,-126.953 -13.241,-195.923c-2.289,-68.969 -5.721,-133.667 -10.299,-194.092c-4.577,-60.424 -12.096,-111.999 -22.558,-154.724c-10.462,-42.724 -26.809,-68.969 -49.04,-78.735l-210.872,-87.891c-2.616,0 -6.866,-5.798 -12.751,-17.395c-5.885,-11.596 -9.481,-20.446 -10.789,-26.55c-0.653,-2.441 -0.98,-5.493 -0.98,-9.155c-0.654,-3.662 -0.981,-7.935 -0.981,-12.818Z" style="fill:#fff;fill-rule:nonzero;stroke:#000;stroke-width:41.67px;"/><path d="M8007.18,3038c0,-73.242 4.741,-146.484 14.222,-219.726c9.481,-73.243 24.683,-139.161 45.607,-197.754c20.924,-58.594 47.896,-106.202 80.916,-142.823c33.02,-36.621 73.07,-54.931 120.148,-54.931c26.809,-0 50.348,9.155 70.618,27.466c20.27,18.31 37.27,42.419 51.002,72.326c13.731,29.907 24.193,65.003 31.385,105.286c7.193,40.283 10.789,82.397 10.789,126.343c0,68.359 -8.664,135.193 -25.991,200.5c-17.328,65.308 -40.377,122.681 -69.147,172.119c-28.77,49.439 -61.627,86.67 -98.57,111.695c-36.944,25.024 -74.705,30.822 -113.283,17.395c0.654,39.062 7.683,70.495 21.087,94.299c13.405,23.804 29.588,41.809 48.55,54.016c18.962,12.207 38.742,20.142 59.339,23.804c20.596,3.662 38.741,5.493 54.434,5.493c16.347,-0 31.876,-2.747 46.588,-8.24c14.712,-5.493 29.261,-11.596 43.646,-18.31c14.385,-6.714 29.097,-12.818 44.136,-18.311c15.039,-5.493 30.732,-8.24 47.078,-8.24c6.539,0 13.241,0.611 20.107,1.831c6.865,1.221 13.077,4.273 18.635,9.156c5.558,4.882 10.135,12.207 13.731,21.972c3.596,9.766 5.395,22.583 5.395,38.452c-0,25.635 -5.068,46.998 -15.203,64.087c-10.135,17.09 -22.885,31.434 -38.251,43.03c-15.366,11.597 -32.53,20.752 -51.492,27.466c-18.962,6.714 -37.434,11.597 -55.415,14.648c-17.982,3.052 -34.328,4.883 -49.04,5.494c-14.713,0.61 -25.665,0.915 -32.857,0.915c-47.079,0 -89.09,-13.733 -126.033,-41.199c-36.944,-27.465 -68.166,-65.918 -93.667,-115.356c-25.501,-49.439 -44.953,-109.253 -58.358,-179.443c-13.404,-70.191 -20.106,-148.011 -20.106,-233.46Zm115.735,-131.836c-0,47.608 3.432,82.092 10.298,103.455c6.866,21.362 23.703,32.043 50.511,32.043c18.962,0 37.598,-6.408 55.906,-19.226c18.308,-12.817 34.818,-30.823 49.53,-54.016c14.712,-23.193 26.482,-50.354 35.309,-81.482c8.828,-31.128 13.241,-65.002 13.241,-101.623c0,-19.532 -0.981,-40.284 -2.942,-62.256c-1.962,-21.973 -5.722,-42.115 -11.28,-60.425c-5.557,-18.311 -12.913,-33.264 -22.068,-44.861c-9.154,-11.597 -20.923,-17.395 -35.308,-17.395c-22.232,0 -42.175,9.155 -59.829,27.466c-17.655,18.31 -32.694,42.114 -45.117,71.411c-12.424,29.297 -21.905,61.951 -28.443,97.961c-6.539,36.011 -9.808,72.327 -9.808,108.948Z" style="fill:#fff;fill-rule:nonzero;stroke:#000;stroke-width:41.67px;"/><path d="M8615.28,2748.69c-0,-12.207 0.327,-24.719 0.981,-37.536c0.654,-12.818 2.125,-24.414 4.413,-34.79c2.289,-10.376 5.885,-18.921 10.789,-25.635c4.904,-6.714 11.606,-10.071 20.107,-10.071c7.192,0 15.365,10.681 24.52,32.044c9.154,21.362 18.471,47.912 27.952,79.651c9.482,31.738 18.636,66.528 27.463,104.37c8.827,37.842 16.837,72.937 24.03,105.285c7.192,32.349 12.913,59.815 17.164,82.398c4.25,22.583 6.702,34.485 7.356,35.705c9.154,-46.386 19.616,-97.656 31.385,-153.808c11.77,-56.153 26.155,-108.338 43.155,-156.555c17.001,-48.218 37.434,-88.501 61.301,-120.85c23.866,-32.349 52.799,-48.523 86.8,-48.523c17.001,0 33.348,5.188 49.041,15.564c15.692,10.376 29.587,25.33 41.684,44.861c12.096,19.531 21.741,43.03 28.933,70.495c7.193,27.466 10.789,58.289 10.789,92.469c0,30.517 -6.375,51.88 -19.126,64.087c-12.75,12.207 -26.972,18.31 -42.664,18.31l-10.789,0l-47.079,-87.89c-1.307,-0 -2.615,-0.611 -3.923,-1.831c-1.308,-0 -2.452,-0.306 -3.433,-0.916c-0.981,-0.61 -2.125,-0.916 -3.433,-0.916c-25.5,0 -45.443,13.123 -59.828,39.368c-14.386,26.245 -25.174,58.594 -32.367,97.046c-7.192,38.452 -11.606,79.346 -13.241,122.681c-1.634,43.335 -2.452,82.092 -2.452,116.272c0,28.076 1.472,55.847 4.414,83.313c2.942,27.465 6.212,54.626 9.808,81.482c3.596,26.855 6.866,54.016 9.808,81.482c2.942,27.465 4.414,55.847 4.414,85.144c-0,57.373 -16.347,86.059 -49.041,86.059c-18.308,0 -37.27,-18.005 -56.886,-54.016c-19.616,-36.011 -39.069,-81.787 -58.358,-137.329c-19.289,-55.542 -37.597,-116.882 -54.925,-184.021c-17.327,-67.139 -32.529,-132.446 -45.607,-195.923c-13.077,-63.476 -23.539,-121.155 -31.385,-173.035c-7.847,-51.879 -11.77,-90.026 -11.77,-114.441Z" style="fill:#fff;fill-rule:nonzero;stroke:#000;stroke-width:41.67px;"/><path d="M4731.21,1328.23c1.601,-34.252 13.682,-56.859 36.242,-67.819c22.56,-10.96 50.42,-17.381 83.58,-19.264c33.16,-1.882 69.003,-2.209 107.529,-0.98c38.527,1.229 74.557,-3.094 108.09,-12.969c33.533,-9.875 61.927,-27.714 85.181,-53.517c23.255,-25.803 36.189,-66.678 38.805,-122.624c7.419,-158.705 4.166,-292.163 -9.761,-400.375c-13.927,-108.211 -46.603,-195.272 -98.029,-261.182c-51.426,-65.911 -125.188,-112.555 -221.287,-139.933c-96.098,-27.377 -222.608,-39.585 -379.532,-36.623c-4.835,-1.37 -11.357,-5.966 -19.566,-13.788c-8.208,-7.821 -16.696,-16.228 -25.462,-25.219c-8.766,-8.992 -16.921,-17.955 -24.465,-26.89c-7.544,-8.935 -12.459,-15.172 -14.743,-18.711c-1.115,-2.341 -1.593,-5.224 -1.433,-8.649c-1.062,-3.483 -1.486,-7.507 -1.273,-12.074c0.16,-3.426 0.932,-6.822 2.314,-10.191c0.107,-2.283 0.851,-5.109 2.234,-8.477c3.826,-3.254 9.832,-7.264 18.017,-12.031c8.184,-4.766 17.259,-8.919 27.223,-12.458c9.965,-3.539 18.999,-6.836 27.104,-9.889c8.104,-3.054 13.99,-4.496 17.656,-4.324c25.72,0.058 64.619,-0.126 116.696,-0.552c52.078,-0.426 111.488,-0.509 178.232,-0.25c66.744,0.26 138.709,0.191 215.895,-0.205c77.186,-0.396 154.04,-0.236 230.562,0.48c76.521,0.717 149.961,1.862 220.318,3.435c70.357,1.572 133.035,3.644 188.035,6.216c-1.869,39.961 -11.227,69.847 -28.077,89.656c-16.849,19.808 -37.444,34.579 -61.784,44.312c-24.341,9.732 -50.686,16.511 -79.037,20.334c-28.351,3.824 -54.644,9.46 -78.877,16.909c-24.233,7.45 -44.695,19.366 -61.384,35.749c-16.69,16.384 -25.808,41.132 -27.356,74.243c-3.043,65.08 1.009,129.062 12.156,191.945c11.146,62.883 24.139,125.567 38.979,188.05c14.839,62.484 27.832,125.168 38.979,188.051c11.146,62.883 15.225,126.294 12.236,190.233c-2.616,55.946 -18.475,106.982 -47.579,153.108c-29.104,46.127 -66.456,85.288 -112.057,117.484c-45.601,32.195 -96.355,56.713 -152.262,73.552c-55.907,16.838 -111.36,23.972 -166.359,21.401c-20.778,-0.971 -42.99,-4.012 -66.636,-9.123c-23.646,-5.11 -45.313,-13.275 -64.999,-24.493c-19.686,-11.219 -35.572,-25.12 -47.658,-41.705c-12.086,-16.585 -17.568,-36.866 -16.447,-60.843Z" style="fill:#fdde14;fill-rule:nonzero;stroke:#0a0015;stroke-width:41.67px;stroke-miterlimit:2;"/><path d="M5430.8,1405.25c-0,-84.498 19.047,-162.873 57.141,-235.125c38.094,-72.252 87.909,-134.707 149.446,-187.365c61.536,-52.658 130.985,-93.989 208.345,-123.992c77.36,-30.003 155.893,-45.004 235.597,-45.004c44.541,-0 84.1,15.001 118.678,45.004c34.578,30.003 63.588,66.435 87.03,109.296c23.443,42.862 41.318,88.172 53.625,135.932c12.307,47.76 18.461,89.397 18.461,124.91c0,75.926 -17.582,149.709 -52.746,221.348c-35.163,71.64 -80.876,135.014 -137.138,190.121c-56.262,55.108 -119.557,99.5 -189.885,133.176c-70.327,33.677 -140.655,50.516 -210.982,50.516c-62.123,-0 -114.576,-11.022 -157.358,-33.065c-42.783,-22.043 -77.36,-52.046 -103.733,-90.009c-26.373,-37.963 -45.713,-82.355 -58.02,-133.176c-12.308,-50.821 -18.461,-105.01 -18.461,-162.567Zm167.028,22.043c-0,34.289 2.93,64.904 8.79,91.846c5.861,26.941 16.117,49.903 30.769,68.884c14.651,18.982 34.284,33.371 58.899,43.168c24.615,9.796 55.676,14.695 93.184,14.695c48.057,-0 96.114,-13.777 144.171,-41.331c48.058,-27.553 91.133,-62.761 129.227,-105.622c38.094,-42.862 69.156,-90.009 93.184,-141.443c24.029,-51.433 36.043,-101.642 36.043,-150.627c0,-22.043 -2.051,-45.923 -6.154,-71.639c-4.102,-25.717 -10.842,-49.597 -20.219,-71.64c-9.377,-22.043 -22.563,-40.718 -39.559,-56.026c-16.996,-15.308 -38.387,-22.961 -64.174,-22.961c-23.442,-0 -50.987,8.266 -82.635,24.798c-31.647,16.532 -64.76,37.657 -99.337,63.374c-34.578,25.716 -68.57,55.107 -101.975,88.171c-33.406,33.065 -63.588,65.823 -90.547,98.275c-26.959,32.453 -48.643,63.68 -65.053,93.683c-16.41,30.003 -24.614,54.801 -24.614,74.395Z" style="fill:#002aff;fill-rule:nonzero;stroke:#000;stroke-width:33.33px;stroke-miterlimit:2;"/><path d="M6331.57,339.908c2.578,-10.468 5.868,-21.038 9.868,-31.71c4.001,-10.672 9.424,-20.161 16.272,-28.467c6.847,-8.305 15.83,-14.142 26.948,-17.51c11.118,-3.367 25.731,-2.821 43.838,1.639c1.293,0.318 3.169,1.058 5.627,2.218c2.458,1.161 4.98,2.06 7.567,2.697c3.622,2.002 6.726,3.322 9.313,3.959c21.235,36.318 36.075,80.497 44.52,132.538c8.445,52.041 15.146,106.984 20.104,164.827c4.958,57.844 11.791,116.427 20.5,175.75c8.71,59.323 24.916,114.663 48.619,166.022c23.703,51.358 57.617,96.072 101.741,134.142c44.125,38.069 104.081,64.773 179.87,80.11c32.334,7.964 57.284,-1.434 74.85,-28.194c17.566,-26.76 32.28,-62.827 44.143,-108.201c11.862,-45.373 22.556,-95.753 32.083,-151.139c9.527,-55.387 22.289,-107.2 38.287,-155.441c15.998,-48.241 37.692,-88.973 65.081,-122.195c27.389,-33.223 64.617,-50.699 111.685,-52.428c11.924,35.134 15.778,86.322 11.562,153.563c-4.217,67.242 -13.857,143.972 -28.92,230.192c-15.064,86.219 -34.65,178.264 -58.756,276.134c-24.107,97.87 -51.06,194.761 -80.858,290.674c-29.798,95.914 -61.216,187.264 -94.254,274.052c-33.037,86.789 -65.308,162.108 -96.812,225.959c-31.503,63.851 -61.402,112.832 -89.695,146.942c-28.293,34.11 -52.789,45.84 -73.487,35.191c-25.369,-30.674 -41.56,-66.582 -48.574,-107.724c-7.014,-41.141 -8.147,-85.275 -3.398,-132.401c4.748,-47.126 14.022,-95.913 27.82,-146.361c13.797,-50.448 28.953,-100.839 45.467,-151.174c16.514,-50.334 33.028,-99.281 49.544,-146.839c16.516,-47.558 29.801,-91.749 39.856,-132.572c-51.472,-8.237 -102.306,-27.42 -152.502,-57.548c-50.196,-30.128 -96.972,-68.573 -140.327,-115.335c-43.355,-46.762 -82.255,-100.475 -116.698,-161.141c-34.443,-60.665 -61.584,-125.916 -81.422,-195.751c-19.837,-69.836 -31.273,-143.153 -34.305,-219.952c-3.033,-76.799 5.248,-154.974 24.843,-234.526Z" style="fill:#ff240d;fill-rule:nonzero;stroke:#000;stroke-width:83.33px;stroke-miterlimit:2;"/><path d="M1828.62,2166.64c0,-27.318 4.606,-52.359 13.818,-75.124c9.212,-22.765 28.293,-34.147 57.245,-34.147c22.371,-0 45.072,28.076 68.102,84.23c23.029,56.153 46.717,127.483 71.062,213.989c24.346,86.506 49.349,181.739 75.011,285.698c25.661,103.96 53.297,204.504 82.906,301.634c29.61,97.13 60.535,184.016 92.777,260.657c32.241,76.642 66.785,130.139 103.633,160.492c34.215,-16.694 61.85,-46.667 82.906,-89.921c21.056,-43.253 38.163,-94.853 51.323,-154.8c13.16,-59.948 23.359,-124.827 30.597,-194.64c7.237,-69.812 14.146,-140.003 20.726,-210.574c6.58,-70.571 13.489,-138.866 20.727,-204.884c7.238,-66.018 17.765,-124.447 31.583,-175.289c13.818,-50.841 31.584,-91.438 53.297,-121.792c21.714,-30.353 49.678,-45.529 83.894,-45.529c19.739,-0 37.834,2.276 54.284,6.829c16.449,4.553 29.938,22.006 40.466,52.359l75.011,242.446c17.107,55.394 36.189,114.583 57.244,177.565c21.056,62.983 42.77,124.827 65.141,185.534c22.372,60.706 44.743,118.756 67.115,174.151c22.372,55.394 43.427,102.062 63.167,140.003c2.632,7.588 10.199,18.212 22.7,31.871c12.502,13.659 21.385,22.006 26.649,25.041l92.776,-109.271c25.004,-28.835 44.085,-71.709 57.245,-128.621c13.16,-56.912 23.03,-122.171 29.61,-195.778c6.579,-73.606 10.856,-153.283 12.83,-239.03c1.974,-85.748 3.948,-170.736 5.922,-254.966c1.974,-84.23 4.935,-165.804 8.883,-244.722c3.948,-78.918 11.186,-148.351 21.714,-208.298c10.527,-59.948 25.332,-107.754 44.414,-143.419c19.081,-35.664 45.072,-53.497 77.971,-53.497c1.316,0 3.29,0.379 5.922,1.138c2.632,0.759 5.264,1.139 7.896,1.139c3.948,1.517 7.238,2.276 9.87,2.276l25.661,26.18c5.264,5.311 9.87,10.623 13.818,15.935c3.948,5.312 6.58,9.485 7.896,12.521c0,12.141 0.329,33.388 0.987,63.741c0.658,30.353 0.987,62.983 0.987,97.889c0,34.906 0.329,67.915 0.987,99.027c0.658,31.112 0.987,52.738 0.987,64.88c0,33.388 -0.329,79.676 -0.987,138.865c-0.658,59.189 -2.632,126.345 -5.922,201.469c-3.29,75.124 -8.554,155.18 -15.792,240.169c-7.237,84.988 -17.436,169.218 -30.596,252.689c-13.16,83.471 -29.609,163.527 -49.349,240.169c-19.74,76.642 -43.756,144.177 -72.05,202.607c-28.293,58.43 -61.193,105.097 -98.698,140.004c-37.505,34.906 -81.261,52.359 -131.268,52.359c-50.008,-0 -92.119,-18.971 -126.334,-56.912c-34.216,-37.942 -63.825,-85.369 -88.828,-142.281c-25.004,-56.912 -46.389,-118.756 -64.154,-185.533c-17.766,-66.777 -35.861,-128.621 -54.284,-185.533c-18.424,-56.912 -38.164,-104.339 -59.219,-142.28c-21.056,-37.942 -46.717,-56.912 -76.985,-56.912c-2.632,-0 -6.58,0.758 -11.844,2.276c-5.263,1.518 -9.211,2.277 -11.843,2.277c-1.316,7.588 -5.922,37.182 -13.818,88.782c-7.896,51.601 -18.424,113.445 -31.583,185.534c-13.16,72.088 -29.281,149.489 -48.363,232.201c-19.081,82.712 -40.466,158.595 -64.153,227.648c-23.688,69.053 -50.007,126.724 -78.959,173.013c-28.951,46.288 -59.877,69.432 -92.776,69.432c-68.431,0 -131.269,-29.973 -188.514,-89.921c-57.245,-59.947 -108.239,-137.347 -152.982,-232.201c-44.743,-94.853 -83.893,-200.71 -117.451,-317.569c-33.557,-116.859 -61.522,-231.442 -83.893,-343.749c-22.372,-112.306 -39.15,-216.645 -50.336,-313.016c-11.186,-96.371 -16.779,-171.875 -16.779,-226.51Z" style="fill:#fcfcfc;fill-rule:nonzero;stroke:#000;stroke-width:41.67px;stroke-miterlimit:2;"/></svg>