<?xml version="1.0" encoding="UTF-8" standalone="no"?>
<!DOCTYPE svg PUBLIC "-//W3C//DTD SVG 1.1//EN" "http://www.w3.org/Graphics/SVG/1.1/DTD/svg11.dtd">
<svg width="100%" height="100%" viewBox="0 0 9113 8071" version="1.1" xmlns="http://www.w3.org/2000/svg" xmlns:xlink="http://www.w3.org/1999/xlink" xml:space="preserve" xmlns:serif="http://www.serif.com/" style="fill-rule:evenodd;clip-rule:evenodd;stroke-linejoin:round;stroke-miterlimit:2;">
    <g transform="matrix(1,0,0,1,-1620.98,-4698.04)">
        <g transform="matrix(-0.544359,1.21401,-1.21401,-0.544359,16711.3,3617.81)">
            <g transform="matrix(-0.945326,0.326126,-0.326126,-0.945326,21543.4,13717.9)">
                <path d="M8332.78,11615.5C8601.88,11894.1 9009.9,12269.8 9397.28,12269.8C9767.38,12269.8 10077.7,11992.3 10344,11735.2L10228.4,11615.5C9993.16,11842.6 9680.96,11912.6 9354,11912.6C9011.78,11912.6 8455.24,11657.5 8217.51,11411.4L8332.78,11615.5Z" style="fill:rgb(0,177,229);"/>
            </g>
            <g transform="matrix(0.945326,-0.326126,-0.326126,-0.945326,293.274,21016.2)">
                <path d="M8332.78,11615.5C8601.88,11894.1 8972.45,12257.9 9359.82,12257.9C9729.92,12257.9 10218.8,12170.2 10485,11913.1L10228.4,11615.5C9993.16,11842.6 9676.96,11903.6 9350,11903.6C9007.78,11903.6 8455.24,11657.5 8217.51,11411.4L8332.78,11615.5Z" style="fill:rgb(0,177,229);"/>
            </g>
            <g transform="matrix(0.945326,-0.326126,0.326126,0.945326,-5519.37,-1646.87)">
                <path d="M8324.78,11700C8593.88,11978.6 9144.59,12579.6 9531.96,12579.6C9902.06,12579.6 10077.7,11992.3 10344,11735.2L10228.4,11615.5C9993.16,11842.6 9867.46,12119.4 9540.5,12119.4C9198.27,12119.4 8820.82,11644.3 8583.09,11398.2L8324.78,11700Z" style="fill:rgb(0,177,229);"/>
            </g>
        </g>
        <g transform="matrix(15.9771,0,0,29.2072,-50141.5,-322655)">
            <g transform="matrix(64.1964,0,0,64.1964,3350.85,11259.9)">
                <path d="M0.442,-0.651C0.44,-0.661 0.434,-0.668 0.426,-0.671C0.417,-0.675 0.408,-0.677 0.398,-0.677C0.389,-0.678 0.379,-0.677 0.37,-0.676C0.36,-0.674 0.353,-0.674 0.349,-0.674C0.336,-0.674 0.315,-0.676 0.284,-0.678L0.088,-0.693C0.057,-0.695 0.036,-0.697 0.023,-0.698L0.021,-0.721C0.021,-0.73 0.022,-0.739 0.024,-0.748C0.026,-0.756 0.034,-0.762 0.046,-0.767C0.114,-0.765 0.181,-0.765 0.247,-0.767C0.313,-0.769 0.38,-0.772 0.446,-0.776C0.512,-0.78 0.578,-0.784 0.644,-0.788C0.71,-0.791 0.777,-0.793 0.844,-0.793C0.844,-0.766 0.837,-0.746 0.825,-0.733C0.812,-0.72 0.796,-0.712 0.777,-0.708C0.758,-0.703 0.736,-0.701 0.713,-0.702C0.689,-0.703 0.667,-0.702 0.646,-0.701C0.625,-0.7 0.606,-0.696 0.59,-0.689C0.574,-0.682 0.563,-0.67 0.558,-0.651C0.557,-0.647 0.556,-0.638 0.556,-0.626C0.555,-0.614 0.555,-0.601 0.554,-0.587C0.554,-0.573 0.554,-0.56 0.553,-0.548C0.553,-0.536 0.553,-0.528 0.553,-0.523C0.553,-0.482 0.558,-0.441 0.568,-0.401C0.579,-0.361 0.59,-0.321 0.603,-0.282C0.616,-0.242 0.627,-0.203 0.638,-0.164C0.648,-0.124 0.653,-0.084 0.653,-0.044C0.653,-0.013 0.636,0.002 0.602,0.002C0.58,0.002 0.561,-0.013 0.545,-0.042C0.529,-0.07 0.515,-0.107 0.503,-0.152C0.491,-0.196 0.481,-0.245 0.474,-0.298C0.466,-0.351 0.46,-0.402 0.455,-0.451C0.451,-0.499 0.447,-0.542 0.445,-0.579C0.443,-0.615 0.442,-0.64 0.442,-0.651Z" style="fill:white;fill-rule:nonzero;"/>
            </g>
            <g transform="matrix(64.1964,0,0,64.1964,3407.59,11259.9)">
                <path d="M0.053,-0.705C0.053,-0.713 0.054,-0.723 0.056,-0.735C0.058,-0.747 0.061,-0.758 0.065,-0.769C0.07,-0.78 0.076,-0.789 0.083,-0.797C0.091,-0.805 0.1,-0.809 0.111,-0.809C0.113,-0.809 0.115,-0.808 0.117,-0.808C0.12,-0.807 0.122,-0.807 0.123,-0.807C0.135,-0.762 0.143,-0.717 0.145,-0.673C0.146,-0.629 0.146,-0.586 0.142,-0.544C0.139,-0.502 0.133,-0.462 0.126,-0.424C0.119,-0.385 0.113,-0.35 0.108,-0.317C0.103,-0.285 0.1,-0.255 0.099,-0.229C0.098,-0.203 0.102,-0.181 0.11,-0.163C0.109,-0.174 0.108,-0.188 0.108,-0.204C0.108,-0.22 0.109,-0.237 0.112,-0.255C0.116,-0.272 0.121,-0.29 0.128,-0.307C0.136,-0.324 0.147,-0.34 0.162,-0.354C0.176,-0.367 0.195,-0.378 0.218,-0.386C0.241,-0.394 0.269,-0.398 0.303,-0.398C0.338,-0.398 0.368,-0.392 0.394,-0.38C0.42,-0.368 0.441,-0.351 0.458,-0.33C0.475,-0.308 0.487,-0.284 0.496,-0.255C0.504,-0.226 0.508,-0.196 0.508,-0.163C0.508,-0.147 0.508,-0.13 0.507,-0.111C0.507,-0.092 0.504,-0.074 0.5,-0.058C0.495,-0.041 0.486,-0.028 0.475,-0.017C0.463,-0.006 0.445,-0 0.422,-0C0.422,-0.012 0.423,-0.028 0.424,-0.047C0.426,-0.067 0.427,-0.088 0.427,-0.111C0.428,-0.133 0.427,-0.156 0.425,-0.179C0.423,-0.202 0.418,-0.223 0.41,-0.242C0.402,-0.26 0.391,-0.275 0.377,-0.287C0.363,-0.299 0.343,-0.305 0.319,-0.305C0.31,-0.305 0.299,-0.304 0.287,-0.303C0.274,-0.302 0.261,-0.299 0.248,-0.293C0.235,-0.287 0.222,-0.278 0.21,-0.267C0.198,-0.255 0.189,-0.239 0.181,-0.218C0.174,-0.197 0.169,-0.171 0.168,-0.139C0.167,-0.108 0.171,-0.069 0.18,-0.023C0.175,-0.01 0.169,-0.003 0.161,-0.001C0.153,0.001 0.144,0.002 0.133,0.002C0.109,0.002 0.09,-0.006 0.076,-0.022C0.061,-0.039 0.05,-0.061 0.042,-0.088C0.033,-0.115 0.028,-0.147 0.025,-0.183C0.023,-0.219 0.022,-0.257 0.022,-0.297C0.023,-0.337 0.025,-0.377 0.028,-0.417C0.032,-0.458 0.035,-0.497 0.039,-0.533C0.042,-0.57 0.045,-0.603 0.048,-0.633C0.051,-0.663 0.053,-0.687 0.053,-0.705Z" style="fill:white;fill-rule:nonzero;"/>
            </g>
            <g transform="matrix(64.1964,0,0,64.1964,3441.57,11259.9)">
                <path d="M0.021,-0.302C0.021,-0.341 0.026,-0.38 0.036,-0.419C0.045,-0.458 0.06,-0.493 0.081,-0.524C0.102,-0.556 0.129,-0.581 0.162,-0.601C0.194,-0.62 0.234,-0.63 0.281,-0.63C0.308,-0.63 0.331,-0.625 0.352,-0.615C0.372,-0.605 0.389,-0.593 0.402,-0.577C0.416,-0.561 0.426,-0.542 0.434,-0.521C0.441,-0.499 0.444,-0.477 0.444,-0.453C0.444,-0.417 0.436,-0.381 0.418,-0.346C0.401,-0.311 0.378,-0.281 0.35,-0.254C0.321,-0.228 0.288,-0.208 0.251,-0.195C0.215,-0.181 0.177,-0.178 0.139,-0.186C0.139,-0.165 0.146,-0.148 0.16,-0.135C0.173,-0.123 0.189,-0.113 0.208,-0.106C0.227,-0.1 0.247,-0.096 0.267,-0.094C0.288,-0.092 0.306,-0.091 0.321,-0.091C0.338,-0.091 0.353,-0.092 0.368,-0.095C0.382,-0.098 0.397,-0.101 0.411,-0.105C0.425,-0.109 0.44,-0.112 0.455,-0.115C0.47,-0.118 0.486,-0.119 0.502,-0.119C0.508,-0.119 0.515,-0.119 0.522,-0.118C0.529,-0.118 0.535,-0.116 0.541,-0.113C0.546,-0.111 0.551,-0.107 0.554,-0.102C0.558,-0.096 0.56,-0.09 0.56,-0.081C0.56,-0.067 0.555,-0.056 0.544,-0.047C0.534,-0.038 0.522,-0.03 0.506,-0.024C0.491,-0.018 0.474,-0.013 0.455,-0.009C0.436,-0.006 0.418,-0.003 0.4,-0.001C0.382,0 0.366,0.001 0.351,0.001C0.336,0.002 0.326,0.002 0.318,0.002C0.271,0.002 0.23,-0.005 0.193,-0.02C0.156,-0.035 0.125,-0.055 0.1,-0.082C0.074,-0.108 0.055,-0.14 0.042,-0.177C0.028,-0.215 0.021,-0.256 0.021,-0.302ZM0.137,-0.372C0.137,-0.347 0.14,-0.328 0.147,-0.317C0.154,-0.306 0.171,-0.3 0.197,-0.3C0.216,-0.3 0.235,-0.303 0.253,-0.31C0.271,-0.317 0.288,-0.326 0.302,-0.339C0.317,-0.351 0.329,-0.366 0.337,-0.382C0.346,-0.399 0.351,-0.417 0.351,-0.437C0.351,-0.447 0.35,-0.458 0.348,-0.47C0.346,-0.481 0.342,-0.492 0.336,-0.502C0.331,-0.512 0.324,-0.52 0.314,-0.526C0.305,-0.532 0.294,-0.535 0.279,-0.535C0.257,-0.535 0.237,-0.53 0.22,-0.521C0.202,-0.511 0.187,-0.498 0.175,-0.482C0.162,-0.467 0.153,-0.449 0.146,-0.43C0.14,-0.411 0.137,-0.392 0.137,-0.372Z" style="fill:white;fill-rule:nonzero;"/>
            </g>
        </g>
        <g transform="matrix(15.0963,0,0,28.1832,-48444,-309515)">
            <g transform="matrix(66.5291,0,0,66.5291,3314.95,11266.9)">
                <path d="M0.021,-0.221C0.021,-0.266 0.032,-0.307 0.053,-0.346C0.074,-0.384 0.102,-0.417 0.136,-0.445C0.17,-0.473 0.209,-0.495 0.252,-0.511C0.295,-0.527 0.339,-0.535 0.383,-0.535C0.408,-0.535 0.43,-0.527 0.449,-0.511C0.468,-0.495 0.484,-0.476 0.497,-0.453C0.51,-0.43 0.52,-0.406 0.527,-0.381C0.534,-0.355 0.537,-0.333 0.537,-0.314C0.537,-0.274 0.527,-0.235 0.508,-0.197C0.488,-0.159 0.463,-0.125 0.432,-0.096C0.4,-0.066 0.365,-0.043 0.326,-0.025C0.287,-0.007 0.248,0.002 0.209,0.002C0.174,0.002 0.145,-0.004 0.122,-0.016C0.098,-0.027 0.079,-0.043 0.064,-0.063C0.049,-0.084 0.039,-0.107 0.032,-0.134C0.025,-0.161 0.021,-0.19 0.021,-0.221ZM0.114,-0.209C0.114,-0.191 0.116,-0.174 0.119,-0.16C0.122,-0.146 0.128,-0.134 0.136,-0.124C0.144,-0.113 0.155,-0.106 0.169,-0.101C0.183,-0.095 0.2,-0.093 0.221,-0.093C0.247,-0.093 0.274,-0.1 0.301,-0.115C0.327,-0.129 0.351,-0.148 0.373,-0.171C0.394,-0.194 0.411,-0.219 0.424,-0.246C0.438,-0.273 0.444,-0.3 0.444,-0.326C0.444,-0.338 0.443,-0.351 0.441,-0.364C0.439,-0.378 0.435,-0.391 0.43,-0.402C0.424,-0.414 0.417,-0.424 0.408,-0.432C0.398,-0.44 0.386,-0.444 0.372,-0.444C0.359,-0.444 0.344,-0.44 0.326,-0.431C0.309,-0.422 0.29,-0.411 0.271,-0.397C0.252,-0.384 0.233,-0.368 0.214,-0.351C0.196,-0.333 0.179,-0.316 0.164,-0.298C0.149,-0.281 0.137,-0.264 0.128,-0.249C0.119,-0.233 0.114,-0.219 0.114,-0.209Z" style="fill:white;fill-rule:nonzero;"/>
            </g>
            <g transform="matrix(66.5291,0,0,66.5291,3352.05,11266.9)">
                <path d="M0.463,0.101C0.448,0.073 0.431,0.037 0.413,-0.005C0.395,-0.047 0.376,-0.091 0.356,-0.137C0.336,-0.183 0.316,-0.228 0.294,-0.272C0.273,-0.317 0.252,-0.355 0.23,-0.388C0.221,-0.394 0.209,-0.398 0.194,-0.399C0.179,-0.401 0.164,-0.401 0.147,-0.401C0.13,-0.401 0.114,-0.401 0.098,-0.402C0.081,-0.403 0.067,-0.407 0.055,-0.413C0.043,-0.42 0.034,-0.43 0.028,-0.444C0.022,-0.458 0.021,-0.478 0.025,-0.504L0.207,-0.504C0.211,-0.544 0.217,-0.584 0.226,-0.624C0.235,-0.664 0.247,-0.702 0.261,-0.738C0.276,-0.774 0.294,-0.808 0.315,-0.839C0.336,-0.87 0.361,-0.897 0.391,-0.919C0.421,-0.942 0.455,-0.96 0.493,-0.973C0.532,-0.986 0.576,-0.992 0.625,-0.992C0.643,-0.992 0.66,-0.988 0.677,-0.979C0.694,-0.971 0.71,-0.96 0.724,-0.946C0.737,-0.933 0.748,-0.917 0.757,-0.9C0.765,-0.883 0.77,-0.865 0.77,-0.848C0.756,-0.848 0.743,-0.85 0.732,-0.856C0.721,-0.861 0.711,-0.868 0.701,-0.875C0.691,-0.881 0.68,-0.888 0.668,-0.894C0.657,-0.899 0.644,-0.902 0.63,-0.902C0.586,-0.902 0.546,-0.894 0.508,-0.876C0.471,-0.859 0.438,-0.836 0.411,-0.807C0.383,-0.778 0.361,-0.744 0.345,-0.706C0.329,-0.668 0.321,-0.627 0.321,-0.585C0.321,-0.582 0.321,-0.577 0.322,-0.569L0.323,-0.52C0.323,-0.512 0.323,-0.507 0.323,-0.504C0.35,-0.495 0.38,-0.488 0.413,-0.484C0.446,-0.48 0.48,-0.477 0.514,-0.476C0.548,-0.475 0.58,-0.475 0.612,-0.477C0.643,-0.478 0.671,-0.479 0.695,-0.481C0.698,-0.479 0.702,-0.476 0.708,-0.47C0.713,-0.464 0.716,-0.46 0.718,-0.457C0.718,-0.455 0.718,-0.453 0.719,-0.452C0.72,-0.448 0.721,-0.446 0.721,-0.446C0.721,-0.431 0.713,-0.419 0.697,-0.41C0.681,-0.402 0.66,-0.395 0.636,-0.391C0.611,-0.387 0.584,-0.384 0.554,-0.383C0.524,-0.382 0.495,-0.38 0.467,-0.379C0.44,-0.378 0.415,-0.377 0.393,-0.375C0.37,-0.373 0.355,-0.369 0.346,-0.364C0.355,-0.321 0.372,-0.279 0.396,-0.239C0.421,-0.198 0.445,-0.158 0.471,-0.117C0.496,-0.077 0.519,-0.036 0.538,0.005C0.558,0.047 0.567,0.089 0.567,0.133C0.565,0.133 0.558,0.133 0.548,0.133C0.537,0.134 0.526,0.133 0.515,0.131C0.503,0.13 0.492,0.127 0.481,0.122C0.471,0.118 0.465,0.11 0.463,0.101Z" style="fill:white;fill-rule:nonzero;"/>
            </g>
            <g transform="matrix(66.5291,0,0,66.5291,3559.54,11265.8)">
                <path d="M0.053,-0.705C0.053,-0.713 0.054,-0.723 0.056,-0.735C0.058,-0.747 0.061,-0.758 0.065,-0.769C0.07,-0.78 0.076,-0.789 0.083,-0.797C0.091,-0.805 0.1,-0.809 0.111,-0.809C0.113,-0.809 0.115,-0.808 0.117,-0.808C0.12,-0.807 0.122,-0.807 0.123,-0.807C0.135,-0.762 0.143,-0.717 0.145,-0.673C0.146,-0.629 0.146,-0.586 0.142,-0.544C0.139,-0.502 0.133,-0.462 0.126,-0.424C0.119,-0.385 0.113,-0.35 0.108,-0.317C0.103,-0.285 0.1,-0.255 0.099,-0.229C0.098,-0.203 0.102,-0.181 0.11,-0.163C0.109,-0.174 0.108,-0.188 0.108,-0.204C0.108,-0.22 0.109,-0.237 0.112,-0.255C0.116,-0.272 0.121,-0.29 0.128,-0.307C0.136,-0.324 0.147,-0.34 0.162,-0.354C0.176,-0.367 0.195,-0.378 0.218,-0.386C0.241,-0.394 0.269,-0.398 0.303,-0.398C0.338,-0.398 0.368,-0.392 0.394,-0.38C0.42,-0.368 0.441,-0.351 0.458,-0.33C0.475,-0.308 0.487,-0.284 0.496,-0.255C0.504,-0.226 0.508,-0.196 0.508,-0.163C0.508,-0.147 0.508,-0.13 0.507,-0.111C0.507,-0.092 0.504,-0.074 0.5,-0.058C0.495,-0.041 0.486,-0.028 0.475,-0.017C0.463,-0.006 0.445,-0 0.422,-0C0.422,-0.012 0.423,-0.028 0.424,-0.047C0.426,-0.067 0.427,-0.088 0.427,-0.111C0.428,-0.133 0.427,-0.156 0.425,-0.179C0.423,-0.202 0.418,-0.223 0.41,-0.242C0.402,-0.26 0.391,-0.275 0.377,-0.287C0.363,-0.299 0.343,-0.305 0.319,-0.305C0.31,-0.305 0.299,-0.304 0.287,-0.303C0.274,-0.302 0.261,-0.299 0.248,-0.293C0.235,-0.287 0.222,-0.278 0.21,-0.267C0.198,-0.255 0.189,-0.239 0.181,-0.218C0.174,-0.197 0.169,-0.171 0.168,-0.139C0.167,-0.108 0.171,-0.069 0.18,-0.023C0.175,-0.01 0.169,-0.003 0.161,-0.001C0.153,0.001 0.144,0.002 0.133,0.002C0.109,0.002 0.09,-0.006 0.076,-0.022C0.061,-0.039 0.05,-0.061 0.042,-0.088C0.033,-0.115 0.028,-0.147 0.025,-0.183C0.023,-0.219 0.022,-0.257 0.022,-0.297C0.023,-0.337 0.025,-0.377 0.028,-0.417C0.032,-0.458 0.035,-0.497 0.039,-0.533C0.042,-0.57 0.045,-0.603 0.048,-0.633C0.051,-0.663 0.053,-0.687 0.053,-0.705Z" style="fill:white;fill-rule:nonzero;"/>
            </g>
            <g transform="matrix(66.5291,0,0,66.5291,3594.76,11265.8)">
                <path d="M0.067,-0.407C0.067,-0.411 0.068,-0.418 0.068,-0.428L0.07,-0.491C0.07,-0.501 0.07,-0.508 0.07,-0.512C0.078,-0.523 0.088,-0.533 0.101,-0.54C0.114,-0.547 0.127,-0.553 0.14,-0.558C0.142,-0.519 0.149,-0.477 0.159,-0.433C0.169,-0.389 0.18,-0.345 0.191,-0.3C0.202,-0.256 0.213,-0.212 0.222,-0.168C0.231,-0.125 0.235,-0.085 0.235,-0.047C0.235,-0.014 0.219,0.002 0.186,0.002C0.165,0.002 0.148,-0.006 0.135,-0.023C0.121,-0.04 0.11,-0.061 0.102,-0.086C0.093,-0.112 0.086,-0.141 0.082,-0.172C0.077,-0.204 0.073,-0.235 0.071,-0.265C0.069,-0.295 0.068,-0.323 0.068,-0.349C0.068,-0.374 0.067,-0.394 0.067,-0.407ZM0.083,-0.813C0.097,-0.808 0.108,-0.798 0.118,-0.785C0.127,-0.772 0.131,-0.76 0.13,-0.75C0.129,-0.74 0.12,-0.732 0.105,-0.729C0.09,-0.725 0.065,-0.729 0.029,-0.741C0.029,-0.761 0.033,-0.778 0.041,-0.792C0.048,-0.806 0.062,-0.813 0.083,-0.813Z" style="fill:white;fill-rule:nonzero;"/>
            </g>
            <g transform="matrix(66.5291,0,0,66.5291,3611.78,11265.8)">
                <path d="M-0.002,-0.547C-0.002,-0.549 -0.002,-0.551 -0.001,-0.553C-0.001,-0.554 -0.001,-0.556 0,-0.558C0.003,-0.562 0.007,-0.566 0.013,-0.572C0.019,-0.578 0.022,-0.581 0.023,-0.581L0.242,-0.581C0.242,-0.589 0.241,-0.601 0.239,-0.619C0.236,-0.636 0.235,-0.655 0.233,-0.676C0.231,-0.697 0.231,-0.719 0.231,-0.742C0.232,-0.764 0.235,-0.785 0.241,-0.803C0.246,-0.822 0.255,-0.837 0.267,-0.849C0.278,-0.861 0.295,-0.867 0.316,-0.867C0.316,-0.794 0.322,-0.736 0.332,-0.691C0.342,-0.647 0.356,-0.613 0.373,-0.589C0.39,-0.566 0.409,-0.55 0.431,-0.542C0.453,-0.535 0.475,-0.532 0.498,-0.533C0.52,-0.535 0.542,-0.538 0.564,-0.544C0.586,-0.55 0.605,-0.554 0.622,-0.556C0.639,-0.558 0.653,-0.556 0.663,-0.551C0.674,-0.546 0.679,-0.533 0.679,-0.512C0.679,-0.497 0.675,-0.486 0.668,-0.479C0.661,-0.473 0.647,-0.468 0.628,-0.465C0.622,-0.464 0.612,-0.462 0.599,-0.46C0.586,-0.459 0.571,-0.457 0.554,-0.456C0.538,-0.454 0.52,-0.452 0.501,-0.451C0.483,-0.449 0.465,-0.448 0.448,-0.446C0.431,-0.445 0.416,-0.444 0.402,-0.443C0.389,-0.443 0.379,-0.442 0.372,-0.442L0.37,-0.407C0.37,-0.375 0.375,-0.344 0.385,-0.314C0.395,-0.285 0.406,-0.255 0.418,-0.225C0.431,-0.195 0.442,-0.166 0.452,-0.136C0.462,-0.106 0.467,-0.075 0.467,-0.044C0.467,-0.038 0.466,-0.032 0.465,-0.026C0.464,-0.02 0.462,-0.014 0.459,-0.009C0.456,-0.004 0.451,-0.001 0.445,0.001C0.439,0.004 0.43,0.003 0.419,-0C0.392,-0.007 0.371,-0.023 0.358,-0.047C0.345,-0.071 0.335,-0.099 0.328,-0.132C0.322,-0.165 0.317,-0.2 0.315,-0.237C0.313,-0.274 0.309,-0.308 0.305,-0.34C0.3,-0.373 0.293,-0.4 0.282,-0.423C0.272,-0.446 0.256,-0.46 0.233,-0.465L0.023,-0.512C0.021,-0.512 0.017,-0.515 0.011,-0.521C0.005,-0.527 0.001,-0.532 0,-0.535C-0.001,-0.536 -0.001,-0.538 -0.001,-0.54C-0.002,-0.542 -0.002,-0.544 -0.002,-0.547Z" style="fill:white;fill-rule:nonzero;"/>
            </g>
            <g transform="matrix(66.5291,0,0,66.5291,3658.23,11265.8)">
                <path d="M0.021,-0.302C0.021,-0.341 0.026,-0.38 0.036,-0.419C0.045,-0.458 0.06,-0.493 0.081,-0.524C0.102,-0.556 0.129,-0.581 0.162,-0.601C0.194,-0.62 0.234,-0.63 0.281,-0.63C0.308,-0.63 0.331,-0.625 0.352,-0.615C0.372,-0.605 0.389,-0.593 0.402,-0.577C0.416,-0.561 0.426,-0.542 0.434,-0.521C0.441,-0.499 0.444,-0.477 0.444,-0.453C0.444,-0.417 0.436,-0.381 0.418,-0.346C0.401,-0.311 0.378,-0.281 0.35,-0.254C0.321,-0.228 0.288,-0.208 0.251,-0.195C0.215,-0.181 0.177,-0.178 0.139,-0.186C0.139,-0.165 0.146,-0.148 0.16,-0.135C0.173,-0.123 0.189,-0.113 0.208,-0.106C0.227,-0.1 0.247,-0.096 0.267,-0.094C0.288,-0.092 0.306,-0.091 0.321,-0.091C0.338,-0.091 0.353,-0.092 0.368,-0.095C0.382,-0.098 0.397,-0.101 0.411,-0.105C0.425,-0.109 0.44,-0.112 0.455,-0.115C0.47,-0.118 0.486,-0.119 0.502,-0.119C0.508,-0.119 0.515,-0.119 0.522,-0.118C0.529,-0.118 0.535,-0.116 0.541,-0.113C0.546,-0.111 0.551,-0.107 0.554,-0.102C0.558,-0.096 0.56,-0.09 0.56,-0.081C0.56,-0.067 0.555,-0.056 0.544,-0.047C0.534,-0.038 0.522,-0.03 0.506,-0.024C0.491,-0.018 0.474,-0.013 0.455,-0.009C0.436,-0.006 0.418,-0.003 0.4,-0.001C0.382,0 0.366,0.001 0.351,0.001C0.336,0.002 0.326,0.002 0.318,0.002C0.271,0.002 0.23,-0.005 0.193,-0.02C0.156,-0.035 0.125,-0.055 0.1,-0.082C0.074,-0.108 0.055,-0.14 0.042,-0.177C0.028,-0.215 0.021,-0.256 0.021,-0.302ZM0.137,-0.372C0.137,-0.347 0.14,-0.328 0.147,-0.317C0.154,-0.306 0.171,-0.3 0.197,-0.3C0.216,-0.3 0.235,-0.303 0.253,-0.31C0.271,-0.317 0.288,-0.326 0.302,-0.339C0.317,-0.351 0.329,-0.366 0.337,-0.382C0.346,-0.399 0.351,-0.417 0.351,-0.437C0.351,-0.447 0.35,-0.458 0.348,-0.47C0.346,-0.481 0.342,-0.492 0.336,-0.502C0.331,-0.512 0.324,-0.52 0.314,-0.526C0.305,-0.532 0.294,-0.535 0.279,-0.535C0.257,-0.535 0.237,-0.53 0.22,-0.521C0.202,-0.511 0.187,-0.498 0.175,-0.482C0.162,-0.467 0.153,-0.449 0.146,-0.43C0.14,-0.411 0.137,-0.392 0.137,-0.372Z" style="fill:white;fill-rule:nonzero;"/>
            </g>
            <g transform="matrix(66.5291,0,0,66.5291,3698.51,11265.8)">
                <path d="M-0.002,-0.465C-0.002,-0.477 0.001,-0.488 0.006,-0.498C0.011,-0.508 0.021,-0.514 0.035,-0.514C0.036,-0.514 0.037,-0.514 0.038,-0.513C0.039,-0.513 0.041,-0.513 0.042,-0.513C0.044,-0.512 0.046,-0.512 0.047,-0.512C0.049,-0.51 0.053,-0.507 0.059,-0.501C0.065,-0.495 0.069,-0.491 0.07,-0.488C0.073,-0.484 0.078,-0.474 0.084,-0.46C0.091,-0.446 0.1,-0.429 0.109,-0.41C0.119,-0.39 0.129,-0.37 0.14,-0.349C0.15,-0.327 0.16,-0.307 0.17,-0.288C0.18,-0.268 0.188,-0.252 0.195,-0.237C0.202,-0.223 0.206,-0.214 0.209,-0.209C0.21,-0.207 0.214,-0.203 0.22,-0.197C0.226,-0.191 0.23,-0.187 0.233,-0.186C0.239,-0.196 0.245,-0.211 0.251,-0.231C0.257,-0.252 0.263,-0.274 0.269,-0.298C0.274,-0.322 0.281,-0.347 0.288,-0.373C0.294,-0.398 0.302,-0.422 0.31,-0.442C0.318,-0.463 0.327,-0.48 0.337,-0.494C0.347,-0.507 0.359,-0.514 0.372,-0.514C0.391,-0.514 0.409,-0.506 0.426,-0.492C0.443,-0.477 0.459,-0.458 0.475,-0.435C0.49,-0.412 0.505,-0.386 0.519,-0.357C0.533,-0.329 0.546,-0.301 0.559,-0.273C0.572,-0.245 0.584,-0.22 0.595,-0.196C0.607,-0.172 0.618,-0.153 0.628,-0.14C0.637,-0.143 0.645,-0.15 0.65,-0.162C0.656,-0.173 0.661,-0.185 0.664,-0.198C0.667,-0.21 0.67,-0.222 0.671,-0.234C0.672,-0.245 0.673,-0.253 0.674,-0.256C0.674,-0.264 0.676,-0.276 0.677,-0.293C0.679,-0.311 0.681,-0.33 0.682,-0.352L0.692,-0.486C0.694,-0.508 0.695,-0.527 0.696,-0.544C0.697,-0.561 0.698,-0.573 0.698,-0.581C0.7,-0.581 0.703,-0.582 0.708,-0.583C0.714,-0.583 0.718,-0.584 0.721,-0.584C0.73,-0.584 0.739,-0.583 0.748,-0.581C0.756,-0.578 0.762,-0.571 0.767,-0.558C0.767,-0.552 0.767,-0.543 0.767,-0.53L0.769,-0.447C0.769,-0.433 0.77,-0.424 0.77,-0.419C0.77,-0.407 0.77,-0.389 0.77,-0.365C0.77,-0.341 0.77,-0.314 0.769,-0.285C0.768,-0.255 0.766,-0.225 0.762,-0.194C0.759,-0.163 0.753,-0.135 0.745,-0.109C0.737,-0.083 0.727,-0.062 0.714,-0.046C0.701,-0.03 0.685,-0.021 0.665,-0.021C0.643,-0.021 0.622,-0.027 0.603,-0.038C0.583,-0.049 0.565,-0.064 0.547,-0.082C0.53,-0.099 0.514,-0.119 0.499,-0.142C0.484,-0.164 0.47,-0.186 0.458,-0.209C0.445,-0.232 0.433,-0.253 0.423,-0.274C0.412,-0.294 0.403,-0.312 0.395,-0.326C0.389,-0.314 0.384,-0.298 0.379,-0.278C0.375,-0.258 0.369,-0.237 0.363,-0.214C0.357,-0.192 0.351,-0.169 0.344,-0.146C0.337,-0.124 0.328,-0.103 0.319,-0.084C0.31,-0.066 0.3,-0.051 0.288,-0.039C0.276,-0.027 0.263,-0.021 0.247,-0.021C0.24,-0.021 0.233,-0.021 0.228,-0.021C0.222,-0.021 0.216,-0.021 0.211,-0.022C0.207,-0.024 0.202,-0.026 0.198,-0.03C0.194,-0.033 0.189,-0.039 0.186,-0.047L0,-0.442C0,-0.444 -0,-0.447 -0.001,-0.452C-0.002,-0.457 -0.002,-0.462 -0.002,-0.465Z" style="fill:white;fill-rule:nonzero;"/>
            </g>
            <g transform="matrix(66.5291,0,0,66.5291,3752.7,11265.8)">
                <path d="M0.488,-0.14C0.461,-0.121 0.437,-0.104 0.417,-0.089C0.398,-0.075 0.378,-0.062 0.359,-0.052C0.34,-0.042 0.32,-0.035 0.299,-0.029C0.277,-0.024 0.251,-0.021 0.221,-0.021C0.153,-0.021 0.103,-0.039 0.07,-0.075C0.038,-0.111 0.021,-0.164 0.021,-0.235C0.021,-0.263 0.025,-0.291 0.033,-0.321C0.04,-0.351 0.051,-0.381 0.065,-0.41C0.079,-0.439 0.096,-0.467 0.115,-0.494C0.135,-0.52 0.157,-0.543 0.181,-0.563C0.206,-0.584 0.232,-0.6 0.26,-0.612C0.288,-0.624 0.317,-0.63 0.349,-0.63C0.401,-0.625 0.442,-0.612 0.471,-0.591C0.501,-0.57 0.523,-0.544 0.539,-0.512C0.554,-0.48 0.564,-0.444 0.57,-0.404C0.575,-0.365 0.58,-0.324 0.583,-0.282C0.586,-0.24 0.59,-0.198 0.596,-0.156C0.601,-0.115 0.611,-0.076 0.627,-0.04C0.618,-0.016 0.609,0.001 0.601,0.011C0.592,0.021 0.583,0.022 0.573,0.015C0.563,0.008 0.551,-0.008 0.538,-0.033C0.524,-0.058 0.508,-0.093 0.488,-0.14ZM0.114,-0.233C0.114,-0.192 0.122,-0.162 0.138,-0.143C0.153,-0.124 0.181,-0.114 0.221,-0.114C0.25,-0.114 0.278,-0.119 0.305,-0.13C0.332,-0.14 0.356,-0.155 0.376,-0.173C0.397,-0.192 0.413,-0.214 0.426,-0.24C0.438,-0.266 0.444,-0.295 0.444,-0.326C0.444,-0.339 0.445,-0.358 0.445,-0.381C0.446,-0.405 0.444,-0.429 0.441,-0.452C0.437,-0.475 0.431,-0.495 0.42,-0.512C0.41,-0.529 0.395,-0.537 0.374,-0.537C0.337,-0.537 0.302,-0.528 0.271,-0.508C0.239,-0.489 0.211,-0.465 0.188,-0.435C0.165,-0.405 0.147,-0.373 0.134,-0.337C0.121,-0.301 0.114,-0.267 0.114,-0.233Z" style="fill:white;fill-rule:nonzero;"/>
            </g>
            <g transform="matrix(66.5291,0,0,66.5291,3797.53,11265.8)">
                <path d="M-0.002,-0.547C-0.002,-0.549 -0.002,-0.551 -0.001,-0.553C-0.001,-0.554 -0.001,-0.556 0,-0.558C0.003,-0.562 0.007,-0.566 0.013,-0.572C0.019,-0.578 0.022,-0.581 0.023,-0.581L0.242,-0.581C0.242,-0.589 0.241,-0.601 0.239,-0.619C0.236,-0.636 0.235,-0.655 0.233,-0.676C0.231,-0.697 0.231,-0.719 0.231,-0.742C0.232,-0.764 0.235,-0.785 0.241,-0.803C0.246,-0.822 0.255,-0.837 0.267,-0.849C0.278,-0.861 0.295,-0.867 0.316,-0.867C0.316,-0.794 0.322,-0.736 0.332,-0.691C0.342,-0.647 0.356,-0.613 0.373,-0.589C0.39,-0.566 0.409,-0.55 0.431,-0.542C0.453,-0.535 0.475,-0.532 0.498,-0.533C0.52,-0.535 0.542,-0.538 0.564,-0.544C0.586,-0.55 0.605,-0.554 0.622,-0.556C0.639,-0.558 0.653,-0.556 0.663,-0.551C0.674,-0.546 0.679,-0.533 0.679,-0.512C0.679,-0.497 0.675,-0.486 0.668,-0.479C0.661,-0.473 0.647,-0.468 0.628,-0.465C0.622,-0.464 0.612,-0.462 0.599,-0.46C0.586,-0.459 0.571,-0.457 0.554,-0.456C0.538,-0.454 0.52,-0.452 0.501,-0.451C0.483,-0.449 0.465,-0.448 0.448,-0.446C0.431,-0.445 0.416,-0.444 0.402,-0.443C0.389,-0.443 0.379,-0.442 0.372,-0.442L0.37,-0.407C0.37,-0.375 0.375,-0.344 0.385,-0.314C0.395,-0.285 0.406,-0.255 0.418,-0.225C0.431,-0.195 0.442,-0.166 0.452,-0.136C0.462,-0.106 0.467,-0.075 0.467,-0.044C0.467,-0.038 0.466,-0.032 0.465,-0.026C0.464,-0.02 0.462,-0.014 0.459,-0.009C0.456,-0.004 0.451,-0.001 0.445,0.001C0.439,0.004 0.43,0.003 0.419,-0C0.392,-0.007 0.371,-0.023 0.358,-0.047C0.345,-0.071 0.335,-0.099 0.328,-0.132C0.322,-0.165 0.317,-0.2 0.315,-0.237C0.313,-0.274 0.309,-0.308 0.305,-0.34C0.3,-0.373 0.293,-0.4 0.282,-0.423C0.272,-0.446 0.256,-0.46 0.233,-0.465L0.023,-0.512C0.021,-0.512 0.017,-0.515 0.011,-0.521C0.005,-0.527 0.001,-0.532 0,-0.535C-0.001,-0.536 -0.001,-0.538 -0.001,-0.54C-0.002,-0.542 -0.002,-0.544 -0.002,-0.547Z" style="fill:white;fill-rule:nonzero;"/>
            </g>
            <g transform="matrix(66.5291,0,0,66.5291,3843.98,11265.8)">
                <path d="M0.021,-0.302C0.021,-0.341 0.026,-0.38 0.036,-0.419C0.045,-0.458 0.06,-0.493 0.081,-0.524C0.102,-0.556 0.129,-0.581 0.162,-0.601C0.194,-0.62 0.234,-0.63 0.281,-0.63C0.308,-0.63 0.331,-0.625 0.352,-0.615C0.372,-0.605 0.389,-0.593 0.402,-0.577C0.416,-0.561 0.426,-0.542 0.434,-0.521C0.441,-0.499 0.444,-0.477 0.444,-0.453C0.444,-0.417 0.436,-0.381 0.418,-0.346C0.401,-0.311 0.378,-0.281 0.35,-0.254C0.321,-0.228 0.288,-0.208 0.251,-0.195C0.215,-0.181 0.177,-0.178 0.139,-0.186C0.139,-0.165 0.146,-0.148 0.16,-0.135C0.173,-0.123 0.189,-0.113 0.208,-0.106C0.227,-0.1 0.247,-0.096 0.267,-0.094C0.288,-0.092 0.306,-0.091 0.321,-0.091C0.338,-0.091 0.353,-0.092 0.368,-0.095C0.382,-0.098 0.397,-0.101 0.411,-0.105C0.425,-0.109 0.44,-0.112 0.455,-0.115C0.47,-0.118 0.486,-0.119 0.502,-0.119C0.508,-0.119 0.515,-0.119 0.522,-0.118C0.529,-0.118 0.535,-0.116 0.541,-0.113C0.546,-0.111 0.551,-0.107 0.554,-0.102C0.558,-0.096 0.56,-0.09 0.56,-0.081C0.56,-0.067 0.555,-0.056 0.544,-0.047C0.534,-0.038 0.522,-0.03 0.506,-0.024C0.491,-0.018 0.474,-0.013 0.455,-0.009C0.436,-0.006 0.418,-0.003 0.4,-0.001C0.382,0 0.366,0.001 0.351,0.001C0.336,0.002 0.326,0.002 0.318,0.002C0.271,0.002 0.23,-0.005 0.193,-0.02C0.156,-0.035 0.125,-0.055 0.1,-0.082C0.074,-0.108 0.055,-0.14 0.042,-0.177C0.028,-0.215 0.021,-0.256 0.021,-0.302ZM0.137,-0.372C0.137,-0.347 0.14,-0.328 0.147,-0.317C0.154,-0.306 0.171,-0.3 0.197,-0.3C0.216,-0.3 0.235,-0.303 0.253,-0.31C0.271,-0.317 0.288,-0.326 0.302,-0.339C0.317,-0.351 0.329,-0.366 0.337,-0.382C0.346,-0.399 0.351,-0.417 0.351,-0.437C0.351,-0.447 0.35,-0.458 0.348,-0.47C0.346,-0.481 0.342,-0.492 0.336,-0.502C0.331,-0.512 0.324,-0.52 0.314,-0.526C0.305,-0.532 0.294,-0.535 0.279,-0.535C0.257,-0.535 0.237,-0.53 0.22,-0.521C0.202,-0.511 0.187,-0.498 0.175,-0.482C0.162,-0.467 0.153,-0.449 0.146,-0.43C0.14,-0.411 0.137,-0.392 0.137,-0.372Z" style="fill:white;fill-rule:nonzero;"/>
            </g>
            <g transform="matrix(66.5291,0,0,66.5291,3884.26,11265.8)">
                <path d="M0.021,-0.456C0.021,-0.463 0.022,-0.469 0.022,-0.476C0.023,-0.483 0.025,-0.489 0.027,-0.495C0.029,-0.5 0.033,-0.505 0.038,-0.508C0.042,-0.512 0.049,-0.514 0.058,-0.514C0.065,-0.514 0.073,-0.508 0.082,-0.497C0.091,-0.485 0.1,-0.471 0.11,-0.454C0.119,-0.437 0.128,-0.419 0.137,-0.398C0.146,-0.378 0.154,-0.36 0.161,-0.342C0.168,-0.325 0.174,-0.31 0.178,-0.298C0.182,-0.286 0.185,-0.28 0.186,-0.279C0.195,-0.304 0.205,-0.331 0.217,-0.361C0.229,-0.391 0.243,-0.419 0.26,-0.445C0.277,-0.471 0.297,-0.492 0.321,-0.509C0.345,-0.527 0.373,-0.535 0.407,-0.535C0.424,-0.535 0.44,-0.532 0.456,-0.527C0.472,-0.521 0.486,-0.513 0.498,-0.503C0.51,-0.493 0.519,-0.48 0.526,-0.465C0.534,-0.451 0.537,-0.434 0.537,-0.416C0.537,-0.4 0.531,-0.388 0.518,-0.382C0.505,-0.375 0.491,-0.372 0.476,-0.372L0.465,-0.372L0.418,-0.419C0.417,-0.419 0.415,-0.419 0.414,-0.42C0.413,-0.42 0.412,-0.42 0.411,-0.42C0.41,-0.421 0.409,-0.421 0.407,-0.421C0.382,-0.421 0.362,-0.414 0.348,-0.4C0.333,-0.386 0.323,-0.369 0.315,-0.348C0.308,-0.328 0.304,-0.306 0.302,-0.283C0.301,-0.26 0.3,-0.239 0.3,-0.221C0.3,-0.206 0.301,-0.191 0.304,-0.176C0.307,-0.162 0.31,-0.147 0.314,-0.133C0.318,-0.118 0.321,-0.104 0.324,-0.089C0.327,-0.075 0.328,-0.06 0.328,-0.044C0.328,-0.013 0.312,0.002 0.279,0.002C0.261,0.002 0.242,-0.008 0.223,-0.027C0.203,-0.046 0.184,-0.07 0.165,-0.1C0.145,-0.13 0.127,-0.162 0.11,-0.198C0.093,-0.234 0.077,-0.269 0.064,-0.303C0.051,-0.337 0.041,-0.367 0.033,-0.395C0.025,-0.423 0.021,-0.443 0.021,-0.456Z" style="fill:white;fill-rule:nonzero;"/>
            </g>
        </g>
        <g transform="matrix(1877.32,87.7639,-81.9872,1753.75,5957.92,6131.4)">
            <path d="M0.207,-0.07C0.207,-0.09 0.213,-0.103 0.225,-0.11C0.236,-0.117 0.251,-0.121 0.269,-0.123C0.286,-0.125 0.305,-0.126 0.326,-0.126C0.346,-0.127 0.365,-0.13 0.383,-0.137C0.4,-0.143 0.415,-0.154 0.427,-0.169C0.438,-0.185 0.444,-0.208 0.444,-0.24C0.444,-0.331 0.439,-0.407 0.429,-0.468C0.419,-0.529 0.4,-0.578 0.371,-0.614C0.342,-0.65 0.301,-0.674 0.25,-0.688C0.198,-0.701 0.13,-0.704 0.047,-0.698C0.044,-0.699 0.041,-0.701 0.036,-0.706C0.032,-0.71 0.027,-0.714 0.022,-0.719C0.017,-0.724 0.013,-0.729 0.008,-0.734C0.004,-0.739 0.001,-0.742 0,-0.744C-0.001,-0.745 -0.001,-0.747 -0.001,-0.749C-0.002,-0.751 -0.002,-0.753 -0.002,-0.756C-0.002,-0.758 -0.002,-0.76 -0.001,-0.762C-0.001,-0.763 -0.001,-0.765 0,-0.767C0.002,-0.769 0.005,-0.771 0.009,-0.774C0.014,-0.777 0.018,-0.779 0.023,-0.782C0.029,-0.784 0.033,-0.786 0.038,-0.788C0.042,-0.79 0.045,-0.791 0.047,-0.791C0.061,-0.792 0.081,-0.793 0.109,-0.794C0.137,-0.796 0.168,-0.798 0.204,-0.799C0.239,-0.801 0.277,-0.803 0.318,-0.805C0.359,-0.807 0.4,-0.809 0.441,-0.811C0.482,-0.813 0.521,-0.814 0.558,-0.815C0.596,-0.816 0.629,-0.816 0.658,-0.816C0.658,-0.794 0.654,-0.776 0.646,-0.765C0.637,-0.753 0.626,-0.744 0.614,-0.738C0.601,-0.732 0.587,-0.727 0.572,-0.724C0.557,-0.721 0.543,-0.717 0.531,-0.712C0.518,-0.708 0.507,-0.7 0.499,-0.69C0.491,-0.681 0.486,-0.666 0.486,-0.647C0.486,-0.61 0.49,-0.574 0.498,-0.539C0.505,-0.503 0.514,-0.468 0.523,-0.433C0.532,-0.397 0.541,-0.362 0.548,-0.327C0.556,-0.291 0.56,-0.255 0.56,-0.219C0.56,-0.187 0.552,-0.157 0.538,-0.13C0.524,-0.103 0.505,-0.08 0.481,-0.061C0.458,-0.041 0.432,-0.026 0.402,-0.015C0.373,-0.004 0.344,0.002 0.314,0.002C0.303,0.002 0.292,0.001 0.279,-0.001C0.266,-0.004 0.254,-0.008 0.244,-0.014C0.233,-0.02 0.224,-0.027 0.217,-0.036C0.21,-0.045 0.207,-0.057 0.207,-0.07Z" style="fill:rgb(253,222,20);fill-rule:nonzero;stroke:white;stroke-width:0.02px;"/>
        </g>
        <g transform="matrix(1800.38,0,0,1881,7013.26,6518.43)">
            <path d="M0.021,-0.221C0.021,-0.266 0.032,-0.307 0.053,-0.346C0.074,-0.384 0.102,-0.417 0.136,-0.445C0.17,-0.473 0.209,-0.495 0.252,-0.511C0.295,-0.527 0.339,-0.535 0.383,-0.535C0.408,-0.535 0.43,-0.527 0.449,-0.511C0.468,-0.495 0.484,-0.476 0.497,-0.453C0.51,-0.43 0.52,-0.406 0.527,-0.381C0.534,-0.355 0.537,-0.333 0.537,-0.314C0.537,-0.274 0.527,-0.235 0.508,-0.197C0.488,-0.159 0.463,-0.125 0.432,-0.096C0.4,-0.066 0.365,-0.043 0.326,-0.025C0.287,-0.007 0.248,0.002 0.209,0.002C0.174,0.002 0.145,-0.004 0.122,-0.016C0.098,-0.027 0.079,-0.043 0.064,-0.063C0.049,-0.084 0.039,-0.107 0.032,-0.134C0.025,-0.161 0.021,-0.19 0.021,-0.221ZM0.114,-0.209C0.114,-0.191 0.116,-0.174 0.119,-0.16C0.122,-0.146 0.128,-0.134 0.136,-0.124C0.144,-0.113 0.155,-0.106 0.169,-0.101C0.183,-0.095 0.2,-0.093 0.221,-0.093C0.247,-0.093 0.274,-0.1 0.301,-0.115C0.327,-0.129 0.351,-0.148 0.373,-0.171C0.394,-0.194 0.411,-0.219 0.424,-0.246C0.438,-0.273 0.444,-0.3 0.444,-0.326C0.444,-0.338 0.443,-0.351 0.441,-0.364C0.439,-0.378 0.435,-0.391 0.43,-0.402C0.424,-0.414 0.417,-0.424 0.408,-0.432C0.398,-0.44 0.386,-0.444 0.372,-0.444C0.359,-0.444 0.344,-0.44 0.326,-0.431C0.309,-0.422 0.29,-0.411 0.271,-0.397C0.252,-0.384 0.233,-0.368 0.214,-0.351C0.196,-0.333 0.179,-0.316 0.164,-0.298C0.149,-0.281 0.137,-0.264 0.128,-0.249C0.119,-0.233 0.114,-0.219 0.114,-0.209Z" style="fill:rgb(0,42,255);fill-rule:nonzero;stroke:white;stroke-width:0.02px;"/>
        </g>
        <g transform="matrix(1986.61,489.331,-396.022,1607.79,7724.52,5939.32)">
            <path d="M0.003,-0.562C0.003,-0.568 0.003,-0.575 0.004,-0.582C0.005,-0.588 0.006,-0.595 0.008,-0.601C0.011,-0.606 0.014,-0.611 0.019,-0.615C0.024,-0.618 0.031,-0.62 0.04,-0.62C0.041,-0.62 0.042,-0.62 0.043,-0.62C0.044,-0.619 0.046,-0.619 0.047,-0.619C0.049,-0.618 0.05,-0.618 0.052,-0.618C0.066,-0.6 0.078,-0.576 0.088,-0.547C0.098,-0.518 0.108,-0.486 0.117,-0.453C0.126,-0.42 0.136,-0.387 0.147,-0.353C0.159,-0.319 0.173,-0.289 0.19,-0.263C0.207,-0.236 0.229,-0.215 0.254,-0.199C0.279,-0.183 0.311,-0.176 0.349,-0.178C0.365,-0.178 0.376,-0.187 0.381,-0.205C0.386,-0.223 0.389,-0.247 0.389,-0.275C0.389,-0.303 0.389,-0.334 0.387,-0.368C0.385,-0.402 0.385,-0.434 0.387,-0.465C0.389,-0.495 0.394,-0.522 0.403,-0.546C0.412,-0.569 0.428,-0.585 0.45,-0.593C0.46,-0.574 0.468,-0.544 0.474,-0.504C0.479,-0.464 0.484,-0.418 0.487,-0.365C0.49,-0.313 0.491,-0.256 0.491,-0.195C0.491,-0.134 0.49,-0.073 0.487,-0.013C0.484,0.048 0.48,0.106 0.474,0.162C0.469,0.217 0.462,0.266 0.455,0.308C0.447,0.35 0.439,0.383 0.429,0.407C0.42,0.431 0.41,0.442 0.398,0.438C0.383,0.424 0.371,0.405 0.363,0.382C0.355,0.359 0.349,0.333 0.346,0.305C0.342,0.277 0.341,0.247 0.342,0.215C0.342,0.184 0.344,0.152 0.346,0.12C0.348,0.088 0.35,0.057 0.352,0.027C0.354,-0.003 0.355,-0.031 0.355,-0.057C0.33,-0.054 0.304,-0.058 0.276,-0.068C0.249,-0.079 0.222,-0.095 0.196,-0.116C0.17,-0.137 0.146,-0.163 0.122,-0.193C0.099,-0.224 0.078,-0.258 0.061,-0.296C0.043,-0.334 0.029,-0.376 0.019,-0.42C0.008,-0.465 0.003,-0.512 0.003,-0.562Z" style="fill:rgb(255,36,13);fill-rule:nonzero;stroke:white;stroke-width:0.04px;"/>
        </g>
        <g transform="matrix(2021.34,0,0,2331.12,3449.76,8304.65)">
            <path d="M0,-0.653C0,-0.665 0.002,-0.676 0.007,-0.686C0.011,-0.695 0.021,-0.7 0.035,-0.7C0.046,-0.7 0.057,-0.688 0.069,-0.664C0.08,-0.64 0.092,-0.609 0.104,-0.572C0.116,-0.535 0.128,-0.494 0.141,-0.45C0.154,-0.405 0.167,-0.362 0.182,-0.32C0.197,-0.279 0.212,-0.241 0.228,-0.208C0.244,-0.176 0.261,-0.153 0.279,-0.14C0.296,-0.147 0.31,-0.16 0.32,-0.178C0.331,-0.197 0.339,-0.219 0.346,-0.245C0.352,-0.27 0.357,-0.298 0.361,-0.328C0.364,-0.358 0.368,-0.388 0.371,-0.418C0.374,-0.449 0.378,-0.478 0.381,-0.506C0.385,-0.535 0.39,-0.56 0.397,-0.582C0.404,-0.603 0.413,-0.621 0.423,-0.634C0.434,-0.647 0.448,-0.653 0.465,-0.653C0.475,-0.653 0.484,-0.652 0.492,-0.65C0.5,-0.648 0.507,-0.641 0.512,-0.628L0.549,-0.524C0.557,-0.5 0.567,-0.475 0.577,-0.448C0.588,-0.421 0.598,-0.394 0.609,-0.368C0.62,-0.342 0.632,-0.317 0.643,-0.293C0.654,-0.27 0.664,-0.25 0.674,-0.233C0.675,-0.23 0.679,-0.226 0.685,-0.22C0.691,-0.214 0.696,-0.21 0.698,-0.209L0.744,-0.256C0.757,-0.268 0.766,-0.287 0.772,-0.311C0.779,-0.335 0.784,-0.363 0.787,-0.395C0.79,-0.427 0.792,-0.461 0.793,-0.498C0.794,-0.534 0.795,-0.571 0.796,-0.607C0.797,-0.643 0.799,-0.678 0.801,-0.712C0.803,-0.746 0.806,-0.776 0.812,-0.801C0.817,-0.827 0.824,-0.847 0.833,-0.863C0.843,-0.878 0.856,-0.886 0.872,-0.886C0.873,-0.886 0.874,-0.886 0.875,-0.885C0.876,-0.885 0.878,-0.885 0.879,-0.885C0.881,-0.884 0.882,-0.884 0.884,-0.884L0.896,-0.873C0.899,-0.87 0.901,-0.868 0.903,-0.866C0.905,-0.863 0.907,-0.862 0.907,-0.86C0.907,-0.855 0.907,-0.846 0.908,-0.833C0.908,-0.82 0.908,-0.806 0.908,-0.791C0.908,-0.776 0.908,-0.762 0.909,-0.749C0.909,-0.735 0.909,-0.726 0.909,-0.721C0.909,-0.706 0.909,-0.687 0.909,-0.661C0.908,-0.636 0.907,-0.607 0.906,-0.575C0.904,-0.542 0.902,-0.508 0.898,-0.472C0.894,-0.435 0.889,-0.399 0.883,-0.363C0.876,-0.327 0.868,-0.293 0.858,-0.26C0.849,-0.227 0.837,-0.198 0.823,-0.173C0.809,-0.148 0.792,-0.128 0.774,-0.113C0.755,-0.098 0.734,-0.091 0.709,-0.091C0.684,-0.091 0.663,-0.099 0.646,-0.115C0.63,-0.132 0.615,-0.152 0.603,-0.176C0.59,-0.201 0.58,-0.227 0.571,-0.256C0.562,-0.285 0.553,-0.311 0.544,-0.335C0.535,-0.36 0.525,-0.38 0.515,-0.396C0.504,-0.413 0.492,-0.421 0.477,-0.421C0.475,-0.421 0.473,-0.421 0.471,-0.42C0.468,-0.419 0.466,-0.419 0.465,-0.419C0.464,-0.416 0.462,-0.403 0.458,-0.381C0.454,-0.359 0.449,-0.332 0.442,-0.301C0.436,-0.27 0.428,-0.237 0.418,-0.202C0.409,-0.166 0.398,-0.134 0.387,-0.104C0.375,-0.074 0.362,-0.05 0.348,-0.03C0.333,-0.01 0.318,-0 0.302,-0C0.268,-0 0.237,-0.013 0.208,-0.039C0.18,-0.064 0.155,-0.097 0.133,-0.138C0.111,-0.179 0.091,-0.224 0.075,-0.274C0.058,-0.325 0.044,-0.374 0.033,-0.422C0.022,-0.47 0.014,-0.515 0.008,-0.556C0.003,-0.597 0,-0.63 0,-0.653Z" style="fill:none;fill-rule:nonzero;stroke:white;stroke-width:0.02px;"/>
        </g>
    </g>
</svg>
